<?xml version="1.0" encoding="UTF-8" standalone="no"?>
<!DOCTYPE svg PUBLIC "-//W3C//DTD SVG 1.1//EN"
 "http://www.w3.org/Graphics/SVG/1.1/DTD/svg11.dtd">
<!-- Generated by graphviz version 13.1.2 (20250808.2320)
 -->
<!-- Title: AI_Paralegal_POC_Module_Architecture Pages: 1 -->
<svg width="695pt" height="729pt"
 viewBox="0.00 0.00 695.00 729.00" xmlns="http://www.w3.org/2000/svg" xmlns:xlink="http://www.w3.org/1999/xlink">
<g id="graph0" class="graph" transform="scale(1 1) rotate(0) translate(4 725.25)">
<title>AI_Paralegal_POC_Module_Architecture</title>
<polygon fill="white" stroke="none" points="-4,4 -4,-725.25 691,-725.25 691,4 -4,4"/>
<g id="clust1" class="cluster">
<title>cluster_app</title>
<path fill="#e8f4f8" stroke="black" stroke-dasharray="5,2" d="M62,-65C62,-65 446,-65 446,-65 452,-65 458,-71 458,-77 458,-77 458,-563.88 458,-563.88 458,-569.88 452,-575.88 446,-575.88 446,-575.88 62,-575.88 62,-575.88 56,-575.88 50,-569.88 50,-563.88 50,-563.88 50,-77 50,-77 50,-71 56,-65 62,-65"/>
<text xml:space="preserve" text-anchor="middle" x="254" y="-558.58" font-family="Times,serif" font-size="14.00">app &#45; Main Application</text>
</g>
<g id="clust2" class="cluster">
<title>cluster_ingest</title>
<path fill="#fff0e6" stroke="black" stroke-dasharray="5,2" d="M478,-157.25C478,-157.25 612,-157.25 612,-157.25 618,-157.25 624,-163.25 624,-169.25 624,-169.25 624,-241 624,-241 624,-247 618,-253 612,-253 612,-253 478,-253 478,-253 472,-253 466,-247 466,-241 466,-241 466,-169.25 466,-169.25 466,-163.25 472,-157.25 478,-157.25"/>
<text xml:space="preserve" text-anchor="middle" x="545" y="-235.7" font-family="Times,serif" font-size="14.00">ingest &#45; Data Ingestion</text>
</g>
<g id="clust3" class="cluster">
<title>cluster_tests</title>
<path fill="#f0f0f0" stroke="black" stroke-dasharray="5,2" d="M559,-488C559,-488 667,-488 667,-488 673,-488 679,-494 679,-500 679,-500 679,-571.75 679,-571.75 679,-577.75 673,-583.75 667,-583.75 667,-583.75 559,-583.75 559,-583.75 553,-583.75 547,-577.75 547,-571.75 547,-571.75 547,-500 547,-500 547,-494 553,-488 559,-488"/>
<text xml:space="preserve" text-anchor="middle" x="613" y="-566.45" font-family="Times,serif" font-size="14.00">tests</text>
</g>
<g id="clust4" class="cluster">
<title>cluster_infra</title>
<path fill="#e6ffe6" stroke="black" stroke-dasharray="5,2" d="M20,-617.5C20,-617.5 314,-617.5 314,-617.5 320,-617.5 326,-623.5 326,-629.5 326,-629.5 326,-701.25 326,-701.25 326,-707.25 320,-713.25 314,-713.25 314,-713.25 20,-713.25 20,-713.25 14,-713.25 8,-707.25 8,-701.25 8,-701.25 8,-629.5 8,-629.5 8,-623.5 14,-617.5 20,-617.5"/>
<text xml:space="preserve" text-anchor="middle" x="167" y="-695.95" font-family="Times,serif" font-size="14.00">Infrastructure &amp; Tools</text>
</g>
<!-- app.core -->
<g id="node1" class="node">
<title>app.core</title>
<path fill="#b3d9ff" stroke="black" d="M239.12,-128.25C239.12,-128.25 88.88,-128.25 88.88,-128.25 82.88,-128.25 76.88,-122.25 76.88,-116.25 76.88,-116.25 76.88,-85 76.88,-85 76.88,-79 82.88,-73 88.88,-73 88.88,-73 239.12,-73 239.12,-73 245.12,-73 251.12,-79 251.12,-85 251.12,-85 251.12,-116.25 251.12,-116.25 251.12,-122.25 245.12,-128.25 239.12,-128.25"/>
<text xml:space="preserve" text-anchor="middle" x="164" y="-110.95" font-family="Arial" font-size="14.00">core</text>
<text xml:space="preserve" text-anchor="middle" x="164" y="-95.2" font-family="Arial" font-size="14.00">(config, database, logging,</text>
<text xml:space="preserve" text-anchor="middle" x="164" y="-79.45" font-family="Arial" font-size="14.00">llm, tools, services)</text>
</g>
<!-- PostgreSQL -->
<g id="node15" class="node">
<title>PostgreSQL</title>
<path fill="#ffffe6" stroke="black" d="M119.12,-32.73C119.12,-34.53 98.9,-36 74,-36 49.1,-36 28.88,-34.53 28.88,-32.73 28.88,-32.73 28.88,-3.27 28.88,-3.27 28.88,-1.47 49.1,0 74,0 98.9,0 119.12,-1.47 119.12,-3.27 119.12,-3.27 119.12,-32.73 119.12,-32.73"/>
<path fill="none" stroke="black" d="M119.12,-32.73C119.12,-30.92 98.9,-29.45 74,-29.45 49.1,-29.45 28.88,-30.92 28.88,-32.73"/>
<text xml:space="preserve" text-anchor="middle" x="74" y="-12.57" font-family="Arial" font-size="14.00">PostgreSQL</text>
</g>
<!-- app.core&#45;&gt;PostgreSQL -->
<g id="edge27" class="edge">
<title>app.core&#45;&gt;PostgreSQL</title>
<path fill="none" stroke="black" d="M134.03,-72.78C123.67,-63.5 112.11,-53.14 101.92,-44.01"/>
<polygon fill="black" stroke="black" points="104.29,-41.44 94.51,-37.37 99.62,-46.65 104.29,-41.44"/>
</g>
<!-- Redis -->
<g id="node16" class="node">
<title>Redis</title>
<path fill="#ffe6e6" stroke="black" d="M191,-32.73C191,-34.53 178.9,-36 164,-36 149.1,-36 137,-34.53 137,-32.73 137,-32.73 137,-3.27 137,-3.27 137,-1.47 149.1,0 164,0 178.9,0 191,-1.47 191,-3.27 191,-3.27 191,-32.73 191,-32.73"/>
<path fill="none" stroke="black" d="M191,-32.73C191,-30.92 178.9,-29.45 164,-29.45 149.1,-29.45 137,-30.92 137,-32.73"/>
<text xml:space="preserve" text-anchor="middle" x="164" y="-12.57" font-family="Arial" font-size="14.00">Redis</text>
</g>
<!-- app.core&#45;&gt;Redis -->
<g id="edge28" class="edge">
<title>app.core&#45;&gt;Redis</title>
<path fill="none" stroke="black" d="M164,-72.78C164,-64.65 164,-55.7 164,-47.48"/>
<polygon fill="black" stroke="black" points="167.5,-47.63 164,-37.63 160.5,-47.63 167.5,-47.63"/>
</g>
<!-- External APIs -->
<g id="node17" class="node">
<title>External APIs</title>
<ellipse fill="#f0e6ff" stroke="black" cx="274" cy="-18" rx="64.54" ry="18"/>
<text xml:space="preserve" text-anchor="middle" x="274" y="-12.57" font-family="Arial" font-size="14.00">External APIs</text>
</g>
<!-- app.core&#45;&gt;External APIs -->
<g id="edge29" class="edge">
<title>app.core&#45;&gt;External APIs</title>
<path fill="none" stroke="black" d="M200.93,-72.55C214.49,-62.61 229.7,-51.47 242.72,-41.93"/>
<polygon fill="black" stroke="black" points="244.54,-44.93 250.53,-36.2 240.4,-39.29 244.54,-44.93"/>
</g>
<!-- app.services -->
<g id="node2" class="node">
<title>app.services</title>
<path fill="#99ccff" stroke="black" d="M417.5,-366.75C417.5,-366.75 290.5,-366.75 290.5,-366.75 284.5,-366.75 278.5,-360.75 278.5,-354.75 278.5,-354.75 278.5,-292 278.5,-292 278.5,-286 284.5,-280 290.5,-280 290.5,-280 417.5,-280 417.5,-280 423.5,-280 429.5,-286 429.5,-292 429.5,-292 429.5,-354.75 429.5,-354.75 429.5,-360.75 423.5,-366.75 417.5,-366.75"/>
<text xml:space="preserve" text-anchor="middle" x="354" y="-349.45" font-family="Arial" font-size="14.00">services</text>
<text xml:space="preserve" text-anchor="middle" x="354" y="-333.7" font-family="Arial" font-size="14.00">(case_management,</text>
<text xml:space="preserve" text-anchor="middle" x="354" y="-317.95" font-family="Arial" font-size="14.00">document_generation,</text>
<text xml:space="preserve" text-anchor="middle" x="354" y="-302.2" font-family="Arial" font-size="14.00">statute_search,</text>
<text xml:space="preserve" text-anchor="middle" x="354" y="-286.45" font-family="Arial" font-size="14.00">supreme_court)</text>
</g>
<!-- app.services&#45;&gt;app.core -->
<g id="edge7" class="edge">
<title>app.services&#45;&gt;app.core</title>
<path fill="none" stroke="black" d="M278.37,-285.35C273.55,-283.44 268.74,-281.63 264,-280 212.72,-262.35 178.84,-295.38 145,-253 119.42,-220.97 131.71,-172.35 145.43,-138.9"/>
<polygon fill="black" stroke="black" points="148.52,-140.57 149.29,-130 142.1,-137.78 148.52,-140.57"/>
</g>
<!-- app.repositories -->
<g id="node4" class="node">
<title>app.repositories</title>
<path fill="#99ccff" stroke="black" d="M397.62,-212.62C397.62,-212.62 334.38,-212.62 334.38,-212.62 328.38,-212.62 322.38,-206.62 322.38,-200.62 322.38,-200.62 322.38,-185.12 322.38,-185.12 322.38,-179.12 328.38,-173.12 334.38,-173.12 334.38,-173.12 397.62,-173.12 397.62,-173.12 403.62,-173.12 409.62,-179.12 409.62,-185.12 409.62,-185.12 409.62,-200.62 409.62,-200.62 409.62,-206.62 403.62,-212.62 397.62,-212.62"/>
<text xml:space="preserve" text-anchor="middle" x="366" y="-195.32" font-family="Arial" font-size="14.00">repositories</text>
<text xml:space="preserve" text-anchor="middle" x="366" y="-179.57" font-family="Arial" font-size="14.00">(case, user)</text>
</g>
<!-- app.services&#45;&gt;app.repositories -->
<g id="edge9" class="edge">
<title>app.services&#45;&gt;app.repositories</title>
<path fill="none" stroke="black" d="M358,-279.59C359.7,-261.37 361.64,-240.56 363.19,-224.01"/>
<polygon fill="black" stroke="black" points="366.65,-224.59 364.09,-214.31 359.68,-223.94 366.65,-224.59"/>
</g>
<!-- app.models -->
<g id="node7" class="node">
<title>app.models</title>
<path fill="#cce6ff" stroke="black" d="M438.12,-118.62C438.12,-118.62 401.88,-118.62 401.88,-118.62 395.88,-118.62 389.88,-112.62 389.88,-106.62 389.88,-106.62 389.88,-94.62 389.88,-94.62 389.88,-88.62 395.88,-82.62 401.88,-82.62 401.88,-82.62 438.12,-82.62 438.12,-82.62 444.12,-82.62 450.12,-88.62 450.12,-94.62 450.12,-94.62 450.12,-106.62 450.12,-106.62 450.12,-112.62 444.12,-118.62 438.12,-118.62"/>
<text xml:space="preserve" text-anchor="middle" x="420" y="-95.2" font-family="Arial" font-size="14.00">models</text>
</g>
<!-- app.services&#45;&gt;app.models -->
<g id="edge8" class="edge">
<title>app.services&#45;&gt;app.models</title>
<path fill="none" stroke="black" d="M402.87,-279.61C409.44,-271.47 415.21,-262.5 419,-253 435.15,-212.53 430.8,-160.98 425.73,-129.68"/>
<polygon fill="black" stroke="black" points="429.25,-129.47 424.06,-120.23 422.35,-130.69 429.25,-129.47"/>
</g>
<!-- app.routes -->
<g id="node3" class="node">
<title>app.routes</title>
<path fill="#80bfff" stroke="black" d="M240.12,-459C240.12,-459 89.88,-459 89.88,-459 83.88,-459 77.88,-453 77.88,-447 77.88,-447 77.88,-415.75 77.88,-415.75 77.88,-409.75 83.88,-403.75 89.88,-403.75 89.88,-403.75 240.12,-403.75 240.12,-403.75 246.12,-403.75 252.12,-409.75 252.12,-415.75 252.12,-415.75 252.12,-447 252.12,-447 252.12,-453 246.12,-459 240.12,-459"/>
<text xml:space="preserve" text-anchor="middle" x="165" y="-441.7" font-family="Arial" font-size="14.00">routes</text>
<text xml:space="preserve" text-anchor="middle" x="165" y="-425.95" font-family="Arial" font-size="14.00">(auth, case_management,</text>
<text xml:space="preserve" text-anchor="middle" x="165" y="-410.2" font-family="Arial" font-size="14.00">monitoring)</text>
</g>
<!-- app.routes&#45;&gt;app.core -->
<g id="edge10" class="edge">
<title>app.routes&#45;&gt;app.core</title>
<path fill="none" stroke="black" d="M149.36,-403.57C121.2,-351.52 68.58,-234.21 110,-146.25 111.48,-143.11 113.3,-140.11 115.37,-137.26"/>
<polygon fill="black" stroke="black" points="117.88,-139.72 121.73,-129.85 112.56,-135.16 117.88,-139.72"/>
</g>
<!-- app.routes&#45;&gt;app.services -->
<g id="edge13" class="edge">
<title>app.routes&#45;&gt;app.services</title>
<path fill="none" stroke="black" d="M213.18,-403.35C230.04,-393.9 249.51,-382.98 268.49,-372.33"/>
<polygon fill="black" stroke="black" points="270.02,-375.49 277.03,-367.54 266.6,-369.38 270.02,-375.49"/>
</g>
<!-- app.routes&#45;&gt;app.models -->
<g id="edge12" class="edge">
<title>app.routes&#45;&gt;app.models</title>
<path fill="none" stroke="black" d="M158.53,-403.45C152.29,-370.28 147.61,-314.14 177,-280 211.54,-239.89 256,-290.85 293,-253 323.39,-221.91 286.74,-191.89 313,-157.25 329.2,-135.89 355.96,-121.98 378.67,-113.41"/>
<polygon fill="black" stroke="black" points="379.73,-116.75 388,-110.13 377.4,-110.15 379.73,-116.75"/>
</g>
<!-- app.auth -->
<g id="node8" class="node">
<title>app.auth</title>
<path fill="#cce6ff" stroke="black" d="M228,-341.38C228,-341.38 198,-341.38 198,-341.38 192,-341.38 186,-335.38 186,-329.38 186,-329.38 186,-317.38 186,-317.38 186,-311.38 192,-305.38 198,-305.38 198,-305.38 228,-305.38 228,-305.38 234,-305.38 240,-311.38 240,-317.38 240,-317.38 240,-329.38 240,-329.38 240,-335.38 234,-341.38 228,-341.38"/>
<text xml:space="preserve" text-anchor="middle" x="213" y="-317.95" font-family="Arial" font-size="14.00">auth</text>
</g>
<!-- app.routes&#45;&gt;app.auth -->
<g id="edge11" class="edge">
<title>app.routes&#45;&gt;app.auth</title>
<path fill="none" stroke="black" d="M177.24,-403.35C184.37,-387.6 193.34,-367.79 200.51,-351.95"/>
<polygon fill="black" stroke="black" points="203.59,-353.65 204.52,-343.09 197.21,-350.76 203.59,-353.65"/>
</g>
<!-- app.repositories&#45;&gt;app.core -->
<g id="edge15" class="edge">
<title>app.repositories&#45;&gt;app.core</title>
<path fill="none" stroke="black" d="M326.34,-172.75C315.56,-167.63 303.86,-162.17 293,-157.25 275.35,-149.26 256.24,-140.88 238.27,-133.11"/>
<polygon fill="black" stroke="black" points="239.8,-129.96 229.23,-129.22 237.03,-136.39 239.8,-129.96"/>
</g>
<!-- app.repositories&#45;&gt;app.models -->
<g id="edge14" class="edge">
<title>app.repositories&#45;&gt;app.models</title>
<path fill="none" stroke="black" d="M377.45,-172.74C385.13,-159.91 395.34,-142.84 403.84,-128.64"/>
<polygon fill="black" stroke="black" points="406.75,-130.58 408.88,-120.2 400.75,-126.99 406.75,-130.58"/>
</g>
<!-- app.paralegal_agents -->
<g id="node5" class="node">
<title>app.paralegal_agents</title>
<path fill="#80bfff" stroke="black" d="M417.75,-459C417.75,-459 322.25,-459 322.25,-459 316.25,-459 310.25,-453 310.25,-447 310.25,-447 310.25,-415.75 310.25,-415.75 310.25,-409.75 316.25,-403.75 322.25,-403.75 322.25,-403.75 417.75,-403.75 417.75,-403.75 423.75,-403.75 429.75,-409.75 429.75,-415.75 429.75,-415.75 429.75,-447 429.75,-447 429.75,-453 423.75,-459 417.75,-459"/>
<text xml:space="preserve" text-anchor="middle" x="370" y="-441.7" font-family="Arial" font-size="14.00">paralegal_agents</text>
<text xml:space="preserve" text-anchor="middle" x="370" y="-425.95" font-family="Arial" font-size="14.00">(agent_sdk,</text>
<text xml:space="preserve" text-anchor="middle" x="370" y="-410.2" font-family="Arial" font-size="14.00">tool_wrappers)</text>
</g>
<!-- app.paralegal_agents&#45;&gt;app.core -->
<g id="edge16" class="edge">
<title>app.paralegal_agents&#45;&gt;app.core</title>
<path fill="none" stroke="black" d="M311.2,-403.33C295.81,-393.74 280.59,-381.56 270,-366.75 246.92,-334.48 277.89,-307.18 249,-280 208.23,-241.65 157.2,-299.47 126,-253 102.28,-217.67 113.44,-197.91 126,-157.25 128.06,-150.58 131.23,-143.99 134.87,-137.81"/>
<polygon fill="black" stroke="black" points="137.59,-140.06 140.08,-129.76 131.71,-136.25 137.59,-140.06"/>
</g>
<!-- app.paralegal_agents&#45;&gt;app.services -->
<g id="edge17" class="edge">
<title>app.paralegal_agents&#45;&gt;app.services</title>
<path fill="none" stroke="black" d="M365.92,-403.35C364.76,-395.68 363.46,-387.03 362.15,-378.35"/>
<polygon fill="black" stroke="black" points="365.61,-377.87 360.66,-368.5 358.69,-378.91 365.61,-377.87"/>
</g>
<!-- app.worker -->
<g id="node6" class="node">
<title>app.worker</title>
<path fill="#66b3ff" stroke="black" d="M271.62,-220.5C271.62,-220.5 166.38,-220.5 166.38,-220.5 160.38,-220.5 154.38,-214.5 154.38,-208.5 154.38,-208.5 154.38,-177.25 154.38,-177.25 154.38,-171.25 160.38,-165.25 166.38,-165.25 166.38,-165.25 271.62,-165.25 271.62,-165.25 277.62,-165.25 283.62,-171.25 283.62,-177.25 283.62,-177.25 283.62,-208.5 283.62,-208.5 283.62,-214.5 277.62,-220.5 271.62,-220.5"/>
<text xml:space="preserve" text-anchor="middle" x="219" y="-203.2" font-family="Arial" font-size="14.00">worker</text>
<text xml:space="preserve" text-anchor="middle" x="219" y="-187.45" font-family="Arial" font-size="14.00">(celery_app, tasks,</text>
<text xml:space="preserve" text-anchor="middle" x="219" y="-171.7" font-family="Arial" font-size="14.00">service_registry)</text>
</g>
<!-- app.worker&#45;&gt;app.core -->
<g id="edge18" class="edge">
<title>app.worker&#45;&gt;app.core</title>
<path fill="none" stroke="black" d="M202.5,-164.8C197.44,-156.5 191.79,-147.22 186.41,-138.39"/>
<polygon fill="black" stroke="black" points="189.47,-136.69 181.28,-129.98 183.49,-140.34 189.47,-136.69"/>
</g>
<!-- app.worker&#45;&gt;app.models -->
<g id="edge19" class="edge">
<title>app.worker&#45;&gt;app.models</title>
<path fill="none" stroke="black" d="M262.57,-164.92C273.9,-158.41 286.23,-151.75 298,-146.25 324.19,-134.01 354.75,-122.84 378.73,-114.73"/>
<polygon fill="black" stroke="black" points="379.76,-118.08 388.14,-111.6 377.55,-111.44 379.76,-118.08"/>
</g>
<!-- ingest -->
<g id="node10" class="node">
<title>ingest</title>
<path fill="#ffcc99" stroke="black" d="M604.38,-220.5C604.38,-220.5 485.62,-220.5 485.62,-220.5 479.62,-220.5 473.62,-214.5 473.62,-208.5 473.62,-208.5 473.62,-177.25 473.62,-177.25 473.62,-171.25 479.62,-165.25 485.62,-165.25 485.62,-165.25 604.38,-165.25 604.38,-165.25 610.38,-165.25 616.38,-171.25 616.38,-177.25 616.38,-177.25 616.38,-208.5 616.38,-208.5 616.38,-214.5 610.38,-220.5 604.38,-220.5"/>
<text xml:space="preserve" text-anchor="middle" x="545" y="-203.2" font-family="Arial" font-size="14.00">ingest</text>
<text xml:space="preserve" text-anchor="middle" x="545" y="-187.45" font-family="Arial" font-size="14.00">(pdf2chunks, embed,</text>
<text xml:space="preserve" text-anchor="middle" x="545" y="-171.7" font-family="Arial" font-size="14.00">preprocess, pipeline)</text>
</g>
<!-- app.worker&#45;&gt;ingest -->
<g id="edge20" class="edge">
<title>app.worker&#45;&gt;ingest</title>
<path fill="none" stroke="orange" stroke-dasharray="5,2" d="M247.77,-220.97C267.05,-237.76 293.95,-257.51 322,-266.5 349.72,-275.39 425.53,-276.14 453,-266.5 475.03,-258.77 495.7,-243.3 511.84,-228.53"/>
<polygon fill="orange" stroke="orange" points="513.92,-231.39 518.76,-221.96 509.1,-226.31 513.92,-231.39"/>
</g>
<!-- app.main -->
<g id="node9" class="node">
<title>app.main</title>
<path fill="#80bfff" stroke="black" d="M318.62,-543.38C318.62,-543.38 243.38,-543.38 243.38,-543.38 237.38,-543.38 231.38,-537.38 231.38,-531.38 231.38,-531.38 231.38,-515.88 231.38,-515.88 231.38,-509.88 237.38,-503.88 243.38,-503.88 243.38,-503.88 318.62,-503.88 318.62,-503.88 324.62,-503.88 330.62,-509.88 330.62,-515.88 330.62,-515.88 330.62,-531.38 330.62,-531.38 330.62,-537.38 324.62,-543.38 318.62,-543.38"/>
<text xml:space="preserve" text-anchor="middle" x="281" y="-526.08" font-family="Arial" font-size="14.00">main</text>
<text xml:space="preserve" text-anchor="middle" x="281" y="-510.32" font-family="Arial" font-size="14.00">(FastAPI app)</text>
</g>
<!-- app.main&#45;&gt;app.core -->
<g id="edge1" class="edge">
<title>app.main&#45;&gt;app.core</title>
<path fill="none" stroke="black" d="M230.9,-523.19C165.43,-521.01 59,-506.12 59,-432.38 59,-432.38 59,-432.38 59,-191.88 59,-168.11 74.65,-149.25 93.87,-135.04"/>
<polygon fill="black" stroke="black" points="95.7,-138.03 101.98,-129.49 91.75,-132.25 95.7,-138.03"/>
</g>
<!-- app.main&#45;&gt;app.services -->
<g id="edge4" class="edge">
<title>app.main&#45;&gt;app.services</title>
<path fill="none" stroke="black" d="M281.76,-503.44C283.26,-479.37 287.72,-437.21 301,-403.75 304.64,-394.57 309.46,-385.37 314.71,-376.65"/>
<polygon fill="black" stroke="black" points="317.59,-378.64 319.97,-368.31 311.67,-374.9 317.59,-378.64"/>
</g>
<!-- app.main&#45;&gt;app.routes -->
<g id="edge2" class="edge">
<title>app.main&#45;&gt;app.routes</title>
<path fill="none" stroke="black" d="M256.4,-503.49C242.48,-492.66 224.68,-478.8 208.48,-466.2"/>
<polygon fill="black" stroke="black" points="210.92,-463.67 200.88,-460.29 206.62,-469.19 210.92,-463.67"/>
</g>
<!-- app.main&#45;&gt;app.paralegal_agents -->
<g id="edge3" class="edge">
<title>app.main&#45;&gt;app.paralegal_agents</title>
<path fill="none" stroke="black" d="M299.87,-503.49C310.26,-492.96 323.46,-479.57 335.6,-467.26"/>
<polygon fill="black" stroke="black" points="337.8,-470.02 342.32,-460.44 332.81,-465.1 337.8,-470.02"/>
</g>
<!-- app.main&#45;&gt;app.models -->
<g id="edge6" class="edge">
<title>app.main&#45;&gt;app.models</title>
<path fill="none" stroke="black" d="M330.95,-516.99C380.47,-508.31 449,-486.51 449,-432.38 449,-432.38 449,-432.38 449,-191.88 449,-170.07 441.23,-146.66 433.74,-129.15"/>
<polygon fill="black" stroke="black" points="437.11,-128.12 429.8,-120.45 430.73,-131 437.11,-128.12"/>
</g>
<!-- app.main&#45;&gt;app.auth -->
<g id="edge5" class="edge">
<title>app.main&#45;&gt;app.auth</title>
<path fill="none" stroke="black" d="M280,-503.53C278.25,-479.56 273.52,-437.5 261,-403.75 254.02,-384.92 242.45,-365.61 232.42,-350.74"/>
<polygon fill="black" stroke="black" points="235.56,-349.13 226.98,-342.91 229.81,-353.12 235.56,-349.13"/>
</g>
<!-- ingest&#45;&gt;app.core -->
<g id="edge21" class="edge">
<title>ingest&#45;&gt;app.core</title>
<path fill="none" stroke="black" d="M484.34,-164.86C476.9,-162.05 469.33,-159.44 462,-157.25 396.73,-137.78 321.3,-123.78 262.66,-114.7"/>
<polygon fill="black" stroke="black" points="263.45,-111.28 253.04,-113.23 262.39,-118.2 263.45,-111.28"/>
</g>
<!-- ingest&#45;&gt;app.models -->
<g id="edge22" class="edge">
<title>ingest&#45;&gt;app.models</title>
<path fill="none" stroke="black" d="M516.03,-164.91C508.72,-158.54 500.74,-151.94 493,-146.25 482.74,-138.7 471.16,-131.2 460.3,-124.57"/>
<polygon fill="black" stroke="black" points="462.26,-121.66 451.89,-119.52 458.66,-127.66 462.26,-121.66"/>
</g>
<!-- tests -->
<g id="node11" class="node">
<title>tests</title>
<path fill="#d9d9d9" stroke="black" d="M659.25,-551.25C659.25,-551.25 566.75,-551.25 566.75,-551.25 560.75,-551.25 554.75,-545.25 554.75,-539.25 554.75,-539.25 554.75,-508 554.75,-508 554.75,-502 560.75,-496 566.75,-496 566.75,-496 659.25,-496 659.25,-496 665.25,-496 671.25,-502 671.25,-508 671.25,-508 671.25,-539.25 671.25,-539.25 671.25,-545.25 665.25,-551.25 659.25,-551.25"/>
<text xml:space="preserve" text-anchor="middle" x="613" y="-533.95" font-family="Arial" font-size="14.00">tests</text>
<text xml:space="preserve" text-anchor="middle" x="613" y="-518.2" font-family="Arial" font-size="14.00">(unit, integration,</text>
<text xml:space="preserve" text-anchor="middle" x="613" y="-502.45" font-family="Arial" font-size="14.00">celery)</text>
</g>
<!-- tests&#45;&gt;app.core -->
<g id="edge23" class="edge">
<title>tests&#45;&gt;app.core</title>
<path fill="none" stroke="gray" stroke-dasharray="1,5" d="M627.41,-495.8C635.51,-478.26 644,-454.57 644,-432.38 644,-432.38 644,-432.38 644,-191.88 644,-174.92 641.72,-167.2 628,-157.25 583.26,-124.81 435.87,-134.84 381,-128.25 342.41,-123.62 299.97,-118.43 262.93,-113.87"/>
<polygon fill="gray" stroke="gray" points="263.48,-110.41 253.12,-112.67 262.62,-117.36 263.48,-110.41"/>
</g>
<!-- tests&#45;&gt;app.services -->
<g id="edge25" class="edge">
<title>tests&#45;&gt;app.services</title>
<path fill="none" stroke="gray" stroke-dasharray="1,5" d="M577.8,-495.68C536.96,-464.42 468.79,-412.24 418.4,-373.67"/>
<polygon fill="gray" stroke="gray" points="420.8,-371.1 410.73,-367.8 416.54,-376.65 420.8,-371.1"/>
</g>
<!-- tests&#45;&gt;app.paralegal_agents -->
<g id="edge26" class="edge">
<title>tests&#45;&gt;app.paralegal_agents</title>
<path fill="none" stroke="gray" stroke-dasharray="1,5" d="M554.49,-500.89C520.23,-488.17 476.74,-472.02 440.59,-458.59"/>
<polygon fill="gray" stroke="gray" points="442.13,-455.43 431.54,-455.23 439.69,-461.99 442.13,-455.43"/>
</g>
<!-- tests&#45;&gt;app.models -->
<g id="edge24" class="edge">
<title>tests&#45;&gt;app.models</title>
<path fill="none" stroke="gray" stroke-dasharray="1,5" d="M648.31,-495.67C665.28,-479.48 682,-457.23 682,-432.38 682,-432.38 682,-432.38 682,-191.88 682,-168.96 676.43,-159.86 658,-146.25 627.4,-123.66 521.16,-110.71 461.49,-105.06"/>
<polygon fill="gray" stroke="gray" points="462,-101.59 451.72,-104.16 461.36,-108.56 462,-101.59"/>
</g>
<!-- deployment -->
<g id="node12" class="node">
<title>deployment</title>
<path fill="#99ff99" stroke="black" d="M130.12,-680.75C130.12,-680.75 27.87,-680.75 27.87,-680.75 21.88,-680.75 15.88,-674.75 15.88,-668.75 15.88,-668.75 15.88,-637.5 15.88,-637.5 15.88,-631.5 21.88,-625.5 27.88,-625.5 27.88,-625.5 130.12,-625.5 130.12,-625.5 136.12,-625.5 142.12,-631.5 142.12,-637.5 142.12,-637.5 142.12,-668.75 142.12,-668.75 142.12,-674.75 136.12,-680.75 130.12,-680.75"/>
<text xml:space="preserve" text-anchor="middle" x="79" y="-663.45" font-family="Arial" font-size="14.00">deployment</text>
<text xml:space="preserve" text-anchor="middle" x="79" y="-647.7" font-family="Arial" font-size="14.00">(docker, k8s,</text>
<text xml:space="preserve" text-anchor="middle" x="79" y="-631.95" font-family="Arial" font-size="14.00">ansible, terraform)</text>
</g>
<!-- scripts -->
<g id="node13" class="node">
<title>scripts</title>
<path fill="#b3ffb3" stroke="black" d="M214.12,-672.88C214.12,-672.88 171.88,-672.88 171.88,-672.88 165.88,-672.88 159.88,-666.88 159.88,-660.88 159.88,-660.88 159.88,-645.38 159.88,-645.38 159.88,-639.38 165.88,-633.38 171.88,-633.38 171.88,-633.38 214.12,-633.38 214.12,-633.38 220.12,-633.38 226.12,-639.38 226.12,-645.38 226.12,-645.38 226.12,-660.88 226.12,-660.88 226.12,-666.88 220.12,-672.88 214.12,-672.88"/>
<text xml:space="preserve" text-anchor="middle" x="193" y="-655.58" font-family="Arial" font-size="14.00">scripts</text>
<text xml:space="preserve" text-anchor="middle" x="193" y="-639.83" font-family="Arial" font-size="14.00">(utilities)</text>
</g>
<!-- ui -->
<g id="node14" class="node">
<title>ui</title>
<path fill="#80ff80" stroke="black" d="M306.25,-672.88C306.25,-672.88 255.75,-672.88 255.75,-672.88 249.75,-672.88 243.75,-666.88 243.75,-660.88 243.75,-660.88 243.75,-645.38 243.75,-645.38 243.75,-639.38 249.75,-633.38 255.75,-633.38 255.75,-633.38 306.25,-633.38 306.25,-633.38 312.25,-633.38 318.25,-639.38 318.25,-645.38 318.25,-645.38 318.25,-660.88 318.25,-660.88 318.25,-666.88 312.25,-672.88 306.25,-672.88"/>
<text xml:space="preserve" text-anchor="middle" x="281" y="-655.58" font-family="Arial" font-size="14.00">ui</text>
<text xml:space="preserve" text-anchor="middle" x="281" y="-639.83" font-family="Arial" font-size="14.00">(frontend)</text>
</g>
<!-- ui&#45;&gt;app.main -->
<g id="edge30" class="edge">
<title>ui&#45;&gt;app.main</title>
<path fill="none" stroke="blue" stroke-dasharray="5,2" d="M281,-633.04C281,-612.47 281,-579.45 281,-555.25"/>
<polygon fill="blue" stroke="blue" points="284.5,-555.36 281,-545.36 277.5,-555.36 284.5,-555.36"/>
<text xml:space="preserve" text-anchor="middle" x="311.38" y="-594.2" font-family="Arial" font-size="14.00">HTTP/API</text>
</g>
</g>
</svg>
