<?xml version="1.0" encoding="UTF-8" standalone="no"?>
<!DOCTYPE svg PUBLIC "-//W3C//DTD SVG 1.1//EN"
 "http://www.w3.org/Graphics/SVG/1.1/DTD/svg11.dtd">
<!-- Generated by graphviz version 13.1.2 (20250808.2320)
 -->
<!-- Title: AI_Paralegal_Detailed Pages: 1 -->
<svg width="1545pt" height="834pt"
 viewBox="0.00 0.00 1545.00 834.00" xmlns="http://www.w3.org/2000/svg" xmlns:xlink="http://www.w3.org/1999/xlink">
<g id="graph0" class="graph" transform="scale(1 1) rotate(0) translate(4 830)">
<title>AI_Paralegal_Detailed</title>
<polygon fill="white" stroke="none" points="-4,4 -4,-830 1541,-830 1541,4 -4,4"/>
<g id="clust1" class="cluster">
<title>cluster_api</title>
<polygon fill="#f0f8ff" stroke="black" points="222,-638 222,-818 552,-818 552,-638 222,-638"/>
<text xml:space="preserve" text-anchor="middle" x="387" y="-800.7" font-family="Times,serif" font-size="14.00">API Layer</text>
</g>
<g id="clust2" class="cluster">
<title>cluster_routes</title>
<polygon fill="#f0f8ff" stroke="black" points="230,-646 230,-722.5 544,-722.5 544,-646 230,-646"/>
<text xml:space="preserve" text-anchor="middle" x="387" y="-705.2" font-family="Times,serif" font-size="14.00">Routes</text>
</g>
<g id="clust3" class="cluster">
<title>cluster_agents</title>
<polygon fill="#f5f5dc" stroke="black" points="410,-389 410,-473.5 544,-473.5 544,-389 410,-389"/>
<text xml:space="preserve" text-anchor="middle" x="477" y="-456.2" font-family="Times,serif" font-size="14.00">Agent Layer</text>
</g>
<g id="clust4" class="cluster">
<title>cluster_services</title>
<polygon fill="#e6ffe6" stroke="black" points="8,-389 8,-598.5 366,-598.5 366,-389 8,-389"/>
<text xml:space="preserve" text-anchor="middle" x="187" y="-581.2" font-family="Times,serif" font-size="14.00">Service Layer</text>
</g>
<g id="clust5" class="cluster">
<title>cluster_core</title>
<polygon fill="#ffe6e6" stroke="black" points="168,-279.5 168,-364 1093,-364 1093,-279.5 168,-279.5"/>
<text xml:space="preserve" text-anchor="middle" x="630.5" y="-346.7" font-family="Times,serif" font-size="14.00">Core Infrastructure</text>
</g>
<g id="clust6" class="cluster">
<title>cluster_worker</title>
<polygon fill="#fff0e6" stroke="black" points="760,-381 760,-621 1475,-621 1475,-381 760,-381"/>
<text xml:space="preserve" text-anchor="middle" x="1117.5" y="-603.7" font-family="Times,serif" font-size="14.00">Celery Worker Layer</text>
</g>
<g id="clust7" class="cluster">
<title>cluster_worker_core</title>
<polygon fill="#fff0e6" stroke="black" points="896,-389 896,-473.5 1368,-473.5 1368,-389 896,-389"/>
<text xml:space="preserve" text-anchor="middle" x="1132" y="-456.2" font-family="Times,serif" font-size="14.00">Worker Core</text>
</g>
<g id="clust8" class="cluster">
<title>cluster_tasks</title>
<polygon fill="#fff0e6" stroke="black" points="768,-512 768,-588.5 1467,-588.5 1467,-512 768,-512"/>
<text xml:space="preserve" text-anchor="middle" x="1117.5" y="-571.2" font-family="Times,serif" font-size="14.00">Task Modules</text>
</g>
<g id="clust9" class="cluster">
<title>cluster_data</title>
<polygon fill="#e6e6fa" stroke="black" points="143,-8 143,-157 567,-157 567,-8 143,-8"/>
<text xml:space="preserve" text-anchor="middle" x="355" y="-139.7" font-family="Times,serif" font-size="14.00">Data Layer</text>
</g>
<g id="clust10" class="cluster">
<title>cluster_models</title>
<polygon fill="#e6e6fa" stroke="black" points="151,-16 151,-124.5 235,-124.5 235,-16 151,-16"/>
<text xml:space="preserve" text-anchor="middle" x="193" y="-107.2" font-family="Times,serif" font-size="14.00">Models</text>
</g>
<g id="clust11" class="cluster">
<title>cluster_storage</title>
<polygon fill="#e6e6fa" stroke="black" points="243,-32 243,-108.5 559,-108.5 559,-32 243,-32"/>
<text xml:space="preserve" text-anchor="middle" x="401" y="-91.2" font-family="Times,serif" font-size="14.00">Storage</text>
</g>
<g id="clust12" class="cluster">
<title>cluster_embeddings</title>
<polygon fill="#ffefd5" stroke="black" points="545,-176 545,-260.5 898,-260.5 898,-176 545,-176"/>
<text xml:space="preserve" text-anchor="middle" x="721.5" y="-243.2" font-family="Times,serif" font-size="14.00">Embedding Models</text>
</g>
<!-- auth.py -->
<g id="node1" class="node">
<title>auth.py</title>
<path fill="lightgrey" stroke="black" d="M420.12,-690C420.12,-690 365.88,-690 365.88,-690 359.88,-690 353.88,-684 353.88,-678 353.88,-678 353.88,-666 353.88,-666 353.88,-660 359.88,-654 365.88,-654 365.88,-654 420.12,-654 420.12,-654 426.12,-654 432.12,-660 432.12,-666 432.12,-666 432.12,-678 432.12,-678 432.12,-684 426.12,-690 420.12,-690"/>
<text xml:space="preserve" text-anchor="middle" x="393" y="-674.5" font-family="Arial" font-size="10.00">Authentication</text>
<text xml:space="preserve" text-anchor="middle" x="393" y="-662.5" font-family="Arial" font-size="10.00">/api/auth/*</text>
</g>
<!-- database_manager.py -->
<g id="node13" class="node">
<title>database_manager.py</title>
<path fill="lightgrey" stroke="black" d="M280.25,-331.5C280.25,-331.5 187.75,-331.5 187.75,-331.5 181.75,-331.5 175.75,-325.5 175.75,-319.5 175.75,-319.5 175.75,-299.5 175.75,-299.5 175.75,-293.5 181.75,-287.5 187.75,-287.5 187.75,-287.5 280.25,-287.5 280.25,-287.5 286.25,-287.5 292.25,-293.5 292.25,-299.5 292.25,-299.5 292.25,-319.5 292.25,-319.5 292.25,-325.5 286.25,-331.5 280.25,-331.5"/>
<text xml:space="preserve" text-anchor="middle" x="234" y="-318" font-family="Arial" font-size="10.00">Database Manager</text>
<text xml:space="preserve" text-anchor="middle" x="234" y="-306" font-family="Arial" font-size="10.00">&#45; Session Management</text>
<text xml:space="preserve" text-anchor="middle" x="234" y="-294" font-family="Arial" font-size="10.00">&#45; Transactions</text>
</g>
<!-- auth.py&#45;&gt;database_manager.py -->
<g id="edge5" class="edge">
<title>auth.py&#45;&gt;database_manager.py</title>
<path fill="none" stroke="black" d="M394.12,-653.52C397.33,-597.35 404.31,-422.75 370,-381 349.95,-356.6 329.53,-377.55 301,-364 287.87,-357.76 275.01,-348.5 264.12,-339.43"/>
<polygon fill="black" stroke="black" points="266.46,-336.83 256.62,-332.91 261.87,-342.11 266.46,-336.83"/>
</g>
<!-- case_management_routes.py -->
<g id="node2" class="node">
<title>case_management_routes.py</title>
<path fill="lightgrey" stroke="black" d="M324.25,-690C324.25,-690 249.75,-690 249.75,-690 243.75,-690 237.75,-684 237.75,-678 237.75,-678 237.75,-666 237.75,-666 237.75,-660 243.75,-654 249.75,-654 249.75,-654 324.25,-654 324.25,-654 330.25,-654 336.25,-660 336.25,-666 336.25,-666 336.25,-678 336.25,-678 336.25,-684 330.25,-690 324.25,-690"/>
<text xml:space="preserve" text-anchor="middle" x="287" y="-674.5" font-family="Arial" font-size="10.00">Case Management</text>
<text xml:space="preserve" text-anchor="middle" x="287" y="-662.5" font-family="Arial" font-size="10.00">/api/cases/*</text>
</g>
<!-- case_management_service.py -->
<g id="node6" class="node">
<title>case_management_service.py</title>
<path fill="lightgrey" stroke="black" d="M234,-566C234,-566 158,-566 158,-566 152,-566 146,-560 146,-554 146,-554 146,-522 146,-522 146,-516 152,-510 158,-510 158,-510 234,-510 234,-510 240,-510 246,-516 246,-522 246,-522 246,-554 246,-554 246,-560 240,-566 234,-566"/>
<text xml:space="preserve" text-anchor="middle" x="196" y="-552.5" font-family="Arial" font-size="10.00">Case Management</text>
<text xml:space="preserve" text-anchor="middle" x="196" y="-540.5" font-family="Arial" font-size="10.00">&#45; CRUD operations</text>
<text xml:space="preserve" text-anchor="middle" x="196" y="-528.5" font-family="Arial" font-size="10.00">&#45; Deadlines</text>
<text xml:space="preserve" text-anchor="middle" x="196" y="-516.5" font-family="Arial" font-size="10.00">&#45; Reminders</text>
</g>
<!-- case_management_routes.py&#45;&gt;case_management_service.py -->
<g id="edge6" class="edge">
<title>case_management_routes.py&#45;&gt;case_management_service.py</title>
<path fill="none" stroke="black" d="M275.1,-653.74C261.52,-634.04 238.9,-601.23 221.33,-575.74"/>
<polygon fill="black" stroke="black" points="224.28,-573.86 215.72,-567.61 218.52,-577.83 224.28,-573.86"/>
</g>
<!-- monitoring_routes.py -->
<g id="node3" class="node">
<title>monitoring_routes.py</title>
<path fill="lightgrey" stroke="black" d="M524.25,-690C524.25,-690 461.75,-690 461.75,-690 455.75,-690 449.75,-684 449.75,-678 449.75,-678 449.75,-666 449.75,-666 449.75,-660 455.75,-654 461.75,-654 461.75,-654 524.25,-654 524.25,-654 530.25,-654 536.25,-660 536.25,-666 536.25,-666 536.25,-678 536.25,-678 536.25,-684 530.25,-690 524.25,-690"/>
<text xml:space="preserve" text-anchor="middle" x="493" y="-674.5" font-family="Arial" font-size="10.00">Monitoring</text>
<text xml:space="preserve" text-anchor="middle" x="493" y="-662.5" font-family="Arial" font-size="10.00">/api/monitoring/*</text>
</g>
<!-- monitoring.py -->
<g id="node22" class="node">
<title>monitoring.py</title>
<path fill="lightgrey" stroke="black" d="M1035.5,-441C1035.5,-441 998.5,-441 998.5,-441 992.5,-441 986.5,-435 986.5,-429 986.5,-429 986.5,-409 986.5,-409 986.5,-403 992.5,-397 998.5,-397 998.5,-397 1035.5,-397 1035.5,-397 1041.5,-397 1047.5,-403 1047.5,-409 1047.5,-409 1047.5,-429 1047.5,-429 1047.5,-435 1041.5,-441 1035.5,-441"/>
<text xml:space="preserve" text-anchor="middle" x="1017" y="-427.5" font-family="Arial" font-size="10.00">Monitoring</text>
<text xml:space="preserve" text-anchor="middle" x="1017" y="-415.5" font-family="Arial" font-size="10.00">&#45; Metrics</text>
<text xml:space="preserve" text-anchor="middle" x="1017" y="-403.5" font-family="Arial" font-size="10.00">&#45; Signals</text>
</g>
<!-- monitoring_routes.py&#45;&gt;monitoring.py -->
<g id="edge7" class="edge">
<title>monitoring_routes.py&#45;&gt;monitoring.py</title>
<path fill="none" stroke="black" d="M515.46,-653.7C560.11,-620.23 664.38,-546.69 764,-510 786.53,-501.7 956.52,-486.04 977,-473.5 986.06,-467.96 993.75,-459.54 999.9,-451.01"/>
<polygon fill="black" stroke="black" points="1002.76,-453.02 1005.34,-442.74 996.92,-449.17 1002.76,-453.02"/>
</g>
<!-- main.py -->
<g id="node4" class="node">
<title>main.py</title>
<path fill="#4a90e2" stroke="black" d="M486.88,-785.5C486.88,-785.5 389.12,-785.5 389.12,-785.5 383.12,-785.5 377.12,-779.5 377.12,-773.5 377.12,-773.5 377.12,-761.5 377.12,-761.5 377.12,-755.5 383.12,-749.5 389.12,-749.5 389.12,-749.5 486.88,-749.5 486.88,-749.5 492.88,-749.5 498.88,-755.5 498.88,-761.5 498.88,-761.5 498.88,-773.5 498.88,-773.5 498.88,-779.5 492.88,-785.5 486.88,-785.5"/>
<text xml:space="preserve" text-anchor="middle" x="438" y="-770" font-family="Arial" font-size="10.00">FastAPI App</text>
<text xml:space="preserve" text-anchor="middle" x="438" y="-758" font-family="Arial" font-size="10.00">WebSocket/Chat/Health</text>
</g>
<!-- main.py&#45;&gt;auth.py -->
<g id="edge1" class="edge">
<title>main.py&#45;&gt;auth.py</title>
<path fill="none" stroke="black" d="M429.75,-749.35C423.19,-735.73 413.89,-716.41 406.29,-700.62"/>
<polygon fill="black" stroke="black" points="409.5,-699.21 402.01,-691.72 403.19,-702.25 409.5,-699.21"/>
</g>
<!-- main.py&#45;&gt;case_management_routes.py -->
<g id="edge2" class="edge">
<title>main.py&#45;&gt;case_management_routes.py</title>
<path fill="none" stroke="black" d="M395.07,-749.06C378.87,-741.74 360.6,-732.59 345,-722.5 333.94,-715.34 322.71,-706.27 313.12,-697.85"/>
<polygon fill="black" stroke="black" points="315.72,-695.48 305.94,-691.39 311.03,-700.68 315.72,-695.48"/>
</g>
<!-- main.py&#45;&gt;monitoring_routes.py -->
<g id="edge3" class="edge">
<title>main.py&#45;&gt;monitoring_routes.py</title>
<path fill="none" stroke="black" d="M448.09,-749.35C456.18,-735.6 467.68,-716.04 477.02,-700.16"/>
<polygon fill="black" stroke="black" points="479.97,-702.06 482.02,-691.66 473.94,-698.51 479.97,-702.06"/>
</g>
<!-- refactored_agent_sdk.py -->
<g id="node5" class="node">
<title>refactored_agent_sdk.py</title>
<path fill="#daa520" stroke="black" d="M524,-441C524,-441 430,-441 430,-441 424,-441 418,-435 418,-429 418,-429 418,-409 418,-409 418,-403 424,-397 430,-397 430,-397 524,-397 524,-397 530,-397 536,-403 536,-409 536,-409 536,-429 536,-429 536,-435 530,-441 524,-441"/>
<text xml:space="preserve" text-anchor="middle" x="477" y="-427.5" font-family="Arial" font-size="10.00">Paralegal Agent SDK</text>
<text xml:space="preserve" text-anchor="middle" x="477" y="-415.5" font-family="Arial" font-size="10.00">&#45; Legal Research Agent</text>
<text xml:space="preserve" text-anchor="middle" x="477" y="-403.5" font-family="Arial" font-size="10.00">&#45; Error Recovery Agent</text>
</g>
<!-- main.py&#45;&gt;refactored_agent_sdk.py -->
<g id="edge4" class="edge">
<title>main.py&#45;&gt;refactored_agent_sdk.py</title>
<path fill="none" stroke="black" d="M499.36,-755.88C518.12,-749.45 536.76,-739.11 548,-722.5 606.18,-636.57 536.83,-508.97 498.76,-450.85"/>
<polygon fill="black" stroke="black" points="501.81,-449.11 493.34,-442.74 495.99,-453 501.81,-449.11"/>
</g>
<!-- tool_registry.py -->
<g id="node15" class="node">
<title>tool_registry.py</title>
<path fill="lightgrey" stroke="black" d="M502.62,-331.5C502.62,-331.5 427.38,-331.5 427.38,-331.5 421.38,-331.5 415.38,-325.5 415.38,-319.5 415.38,-319.5 415.38,-299.5 415.38,-299.5 415.38,-293.5 421.38,-287.5 427.38,-287.5 427.38,-287.5 502.62,-287.5 502.62,-287.5 508.62,-287.5 514.62,-293.5 514.62,-299.5 514.62,-299.5 514.62,-319.5 514.62,-319.5 514.62,-325.5 508.62,-331.5 502.62,-331.5"/>
<text xml:space="preserve" text-anchor="middle" x="465" y="-318" font-family="Arial" font-size="10.00">Tool Registry</text>
<text xml:space="preserve" text-anchor="middle" x="465" y="-306" font-family="Arial" font-size="10.00">&#45; Tool Definitions</text>
<text xml:space="preserve" text-anchor="middle" x="465" y="-294" font-family="Arial" font-size="10.00">&#45; OpenAI Schemas</text>
</g>
<!-- refactored_agent_sdk.py&#45;&gt;tool_registry.py -->
<g id="edge8" class="edge">
<title>refactored_agent_sdk.py&#45;&gt;tool_registry.py</title>
<path fill="none" stroke="black" d="M474.6,-396.5C472.9,-381.27 470.59,-360.55 468.66,-343.27"/>
<polygon fill="black" stroke="black" points="472.15,-343.01 467.56,-333.46 465.19,-343.79 472.15,-343.01"/>
</g>
<!-- tool_executor.py -->
<g id="node16" class="node">
<title>tool_executor.py</title>
<path fill="lightgrey" stroke="black" d="M385.62,-331.5C385.62,-331.5 322.38,-331.5 322.38,-331.5 316.38,-331.5 310.38,-325.5 310.38,-319.5 310.38,-319.5 310.38,-299.5 310.38,-299.5 310.38,-293.5 316.38,-287.5 322.38,-287.5 322.38,-287.5 385.62,-287.5 385.62,-287.5 391.62,-287.5 397.62,-293.5 397.62,-299.5 397.62,-299.5 397.62,-319.5 397.62,-319.5 397.62,-325.5 391.62,-331.5 385.62,-331.5"/>
<text xml:space="preserve" text-anchor="middle" x="354" y="-318" font-family="Arial" font-size="10.00">Tool Executor</text>
<text xml:space="preserve" text-anchor="middle" x="354" y="-306" font-family="Arial" font-size="10.00">&#45; Circuit Breaker</text>
<text xml:space="preserve" text-anchor="middle" x="354" y="-294" font-family="Arial" font-size="10.00">&#45; Retry Logic</text>
</g>
<!-- refactored_agent_sdk.py&#45;&gt;tool_executor.py -->
<g id="edge9" class="edge">
<title>refactored_agent_sdk.py&#45;&gt;tool_executor.py</title>
<path fill="none" stroke="black" d="M446.85,-396.62C433.92,-387.06 418.87,-375.4 406,-364 397.58,-356.54 388.89,-347.99 381.08,-339.94"/>
<polygon fill="black" stroke="black" points="383.79,-337.71 374.36,-332.9 378.73,-342.55 383.79,-337.71"/>
</g>
<!-- conversation_manager.py -->
<g id="node18" class="node">
<title>conversation_manager.py</title>
<path fill="lightgrey" stroke="black" d="M635.12,-331.5C635.12,-331.5 544.88,-331.5 544.88,-331.5 538.88,-331.5 532.88,-325.5 532.88,-319.5 532.88,-319.5 532.88,-299.5 532.88,-299.5 532.88,-293.5 538.88,-287.5 544.88,-287.5 544.88,-287.5 635.12,-287.5 635.12,-287.5 641.12,-287.5 647.12,-293.5 647.12,-299.5 647.12,-299.5 647.12,-319.5 647.12,-319.5 647.12,-325.5 641.12,-331.5 635.12,-331.5"/>
<text xml:space="preserve" text-anchor="middle" x="590" y="-318" font-family="Arial" font-size="10.00">Conversation Manager</text>
<text xml:space="preserve" text-anchor="middle" x="590" y="-306" font-family="Arial" font-size="10.00">&#45; State Management</text>
<text xml:space="preserve" text-anchor="middle" x="590" y="-294" font-family="Arial" font-size="10.00">&#45; History</text>
</g>
<!-- refactored_agent_sdk.py&#45;&gt;conversation_manager.py -->
<g id="edge10" class="edge">
<title>refactored_agent_sdk.py&#45;&gt;conversation_manager.py</title>
<path fill="none" stroke="black" d="M499.6,-396.5C516.69,-380.25 540.35,-357.74 559.17,-339.83"/>
<polygon fill="black" stroke="black" points="561.51,-342.43 566.35,-333 556.69,-337.36 561.51,-342.43"/>
</g>
<!-- case_management_service.py&#45;&gt;database_manager.py -->
<g id="edge11" class="edge">
<title>case_management_service.py&#45;&gt;database_manager.py</title>
<path fill="none" stroke="black" d="M246.46,-513.8C285.38,-495.87 332.67,-474.02 333,-473.5 355.13,-438.85 354.18,-416.24 333,-381 324.7,-367.2 314.46,-372.84 301,-364 289.64,-356.54 277.87,-347.6 267.42,-339.19"/>
<polygon fill="black" stroke="black" points="269.74,-336.56 259.79,-332.93 265.31,-341.98 269.74,-336.56"/>
</g>
<!-- document_generation_service.py -->
<g id="node7" class="node">
<title>document_generation_service.py</title>
<path fill="lightgrey" stroke="black" d="M115.62,-566C115.62,-566 28.37,-566 28.37,-566 22.38,-566 16.38,-560 16.38,-554 16.38,-554 16.38,-522 16.38,-522 16.38,-516 22.38,-510 28.38,-510 28.38,-510 115.62,-510 115.62,-510 121.62,-510 127.62,-516 127.62,-522 127.62,-522 127.62,-554 127.62,-554 127.62,-560 121.62,-566 115.62,-566"/>
<text xml:space="preserve" text-anchor="middle" x="72" y="-552.5" font-family="Arial" font-size="10.00">Document Generation</text>
<text xml:space="preserve" text-anchor="middle" x="72" y="-540.5" font-family="Arial" font-size="10.00">&#45; Templates</text>
<text xml:space="preserve" text-anchor="middle" x="72" y="-528.5" font-family="Arial" font-size="10.00">&#45; Contract Analysis</text>
<text xml:space="preserve" text-anchor="middle" x="72" y="-516.5" font-family="Arial" font-size="10.00">&#45; Validation</text>
</g>
<!-- statute_search_service.py -->
<g id="node8" class="node">
<title>statute_search_service.py</title>
<path fill="lightgrey" stroke="black" d="M194.12,-441C194.12,-441 133.88,-441 133.88,-441 127.88,-441 121.88,-435 121.88,-429 121.88,-429 121.88,-409 121.88,-409 121.88,-403 127.88,-397 133.88,-397 133.88,-397 194.12,-397 194.12,-397 200.12,-397 206.12,-403 206.12,-409 206.12,-409 206.12,-429 206.12,-429 206.12,-435 200.12,-441 194.12,-441"/>
<text xml:space="preserve" text-anchor="middle" x="164" y="-427.5" font-family="Arial" font-size="10.00">Statute Search</text>
<text xml:space="preserve" text-anchor="middle" x="164" y="-415.5" font-family="Arial" font-size="10.00">&#45; Hybrid Search</text>
<text xml:space="preserve" text-anchor="middle" x="164" y="-403.5" font-family="Arial" font-size="10.00">&#45; Article Lookup</text>
</g>
<!-- document_generation_service.py&#45;&gt;statute_search_service.py -->
<g id="edge12" class="edge">
<title>document_generation_service.py&#45;&gt;statute_search_service.py</title>
<path fill="none" stroke="black" d="M93.57,-509.57C107.56,-491.77 125.81,-468.57 140.22,-450.24"/>
<polygon fill="black" stroke="black" points="142.79,-452.63 146.22,-442.61 137.29,-448.31 142.79,-452.63"/>
</g>
<!-- supreme_court_service.py -->
<g id="node9" class="node">
<title>supreme_court_service.py</title>
<path fill="lightgrey" stroke="black" d="M92,-441C92,-441 28,-441 28,-441 22,-441 16,-435 16,-429 16,-429 16,-409 16,-409 16,-403 22,-397 28,-397 28,-397 92,-397 92,-397 98,-397 104,-403 104,-409 104,-409 104,-429 104,-429 104,-435 98,-441 92,-441"/>
<text xml:space="preserve" text-anchor="middle" x="60" y="-427.5" font-family="Arial" font-size="10.00">Supreme Court</text>
<text xml:space="preserve" text-anchor="middle" x="60" y="-415.5" font-family="Arial" font-size="10.00">&#45; Ruling Search</text>
<text xml:space="preserve" text-anchor="middle" x="60" y="-403.5" font-family="Arial" font-size="10.00">&#45; Docket Lookup</text>
</g>
<!-- document_generation_service.py&#45;&gt;supreme_court_service.py -->
<g id="edge13" class="edge">
<title>document_generation_service.py&#45;&gt;supreme_court_service.py</title>
<path fill="none" stroke="black" d="M69.19,-509.57C67.44,-492.58 65.2,-470.68 63.36,-452.78"/>
<polygon fill="black" stroke="black" points="66.85,-452.52 62.35,-442.92 59.89,-453.23 66.85,-452.52"/>
</g>
<!-- openai_client.py -->
<g id="node10" class="node">
<title>openai_client.py</title>
<path fill="lightgrey" stroke="black" d="M311.62,-441C311.62,-441 236.38,-441 236.38,-441 230.38,-441 224.38,-435 224.38,-429 224.38,-429 224.38,-409 224.38,-409 224.38,-403 230.38,-397 236.38,-397 236.38,-397 311.62,-397 311.62,-397 317.62,-397 323.62,-403 323.62,-409 323.62,-409 323.62,-429 323.62,-429 323.62,-435 317.62,-441 311.62,-441"/>
<text xml:space="preserve" text-anchor="middle" x="274" y="-427.5" font-family="Arial" font-size="10.00">OpenAI Client</text>
<text xml:space="preserve" text-anchor="middle" x="274" y="-415.5" font-family="Arial" font-size="10.00">&#45; Structured Output</text>
<text xml:space="preserve" text-anchor="middle" x="274" y="-403.5" font-family="Arial" font-size="10.00">&#45; Retry Logic</text>
</g>
<!-- document_generation_service.py&#45;&gt;openai_client.py -->
<g id="edge14" class="edge">
<title>document_generation_service.py&#45;&gt;openai_client.py</title>
<path fill="none" stroke="black" d="M127.79,-513.23C164.41,-497.46 206.98,-478.73 215,-473.5 225.73,-466.51 236.43,-457.57 245.7,-449.01"/>
<polygon fill="black" stroke="black" points="247.85,-451.8 252.68,-442.37 243.03,-446.73 247.85,-451.8"/>
</g>
<!-- llm_manager.py -->
<g id="node14" class="node">
<title>llm_manager.py</title>
<path fill="lightgrey" stroke="black" d="M729,-331.5C729,-331.5 677,-331.5 677,-331.5 671,-331.5 665,-325.5 665,-319.5 665,-319.5 665,-299.5 665,-299.5 665,-293.5 671,-287.5 677,-287.5 677,-287.5 729,-287.5 729,-287.5 735,-287.5 741,-293.5 741,-299.5 741,-299.5 741,-319.5 741,-319.5 741,-325.5 735,-331.5 729,-331.5"/>
<text xml:space="preserve" text-anchor="middle" x="703" y="-318" font-family="Arial" font-size="10.00">LLM Manager</text>
<text xml:space="preserve" text-anchor="middle" x="703" y="-306" font-family="Arial" font-size="10.00">&#45; Embeddings</text>
<text xml:space="preserve" text-anchor="middle" x="703" y="-294" font-family="Arial" font-size="10.00">&#45; Caching</text>
</g>
<!-- statute_search_service.py&#45;&gt;llm_manager.py -->
<g id="edge15" class="edge">
<title>statute_search_service.py&#45;&gt;llm_manager.py</title>
<path fill="none" stroke="black" d="M187.49,-396.54C195.62,-390.37 205.18,-384.4 215,-381 307.68,-348.93 567.45,-406.15 656,-364 666.8,-358.86 676.15,-349.96 683.6,-340.88"/>
<polygon fill="black" stroke="black" points="686.26,-343.17 689.5,-333.08 680.68,-338.95 686.26,-343.17"/>
</g>
<!-- Qdrant -->
<g id="node35" class="node">
<title>Qdrant</title>
<path fill="lightgrey" stroke="black" d="M305,-72.73C305,-74.53 292.9,-76 278,-76 263.1,-76 251,-74.53 251,-72.73 251,-72.73 251,-43.27 251,-43.27 251,-41.47 263.1,-40 278,-40 292.9,-40 305,-41.47 305,-43.27 305,-43.27 305,-72.73 305,-72.73"/>
<path fill="none" stroke="black" d="M305,-72.73C305,-70.92 292.9,-69.45 278,-69.45 263.1,-69.45 251,-70.92 251,-72.73"/>
<text xml:space="preserve" text-anchor="middle" x="278" y="-54.5" font-family="Arial" font-size="10.00">Qdrant</text>
</g>
<!-- statute_search_service.py&#45;&gt;Qdrant -->
<g id="edge30" class="edge">
<title>statute_search_service.py&#45;&gt;Qdrant</title>
<path fill="none" stroke="black" d="M160.51,-396.87C156.73,-369.28 152.65,-319.77 164,-279.5 181.32,-218.06 210.43,-214.09 239,-157 250.44,-134.14 261,-107.07 268.24,-87.18"/>
<polygon fill="black" stroke="black" points="271.52,-88.4 271.59,-77.81 264.93,-86.05 271.52,-88.4"/>
</g>
<!-- supreme_court_service.py&#45;&gt;database_manager.py -->
<g id="edge16" class="edge">
<title>supreme_court_service.py&#45;&gt;database_manager.py</title>
<path fill="none" stroke="black" d="M89.7,-396.63C97.22,-391.39 105.34,-385.89 113,-381 136.45,-366.02 163.12,-350.34 185.45,-337.58"/>
<polygon fill="black" stroke="black" points="187.09,-340.67 194.05,-332.69 183.63,-334.59 187.09,-340.67"/>
</g>
<!-- supreme_court_service.py&#45;&gt;Qdrant -->
<g id="edge31" class="edge">
<title>supreme_court_service.py&#45;&gt;Qdrant</title>
<path fill="none" stroke="black" d="M63.04,-396.52C70.9,-349.18 96.38,-235.39 166,-176 191.51,-154.24 213.87,-179.19 239,-157 259.25,-139.12 269.11,-109.32 273.83,-87.26"/>
<polygon fill="black" stroke="black" points="277.22,-88.19 275.63,-77.72 270.34,-86.9 277.22,-88.19"/>
</g>
<!-- fallback_parser.py -->
<g id="node11" class="node">
<title>fallback_parser.py</title>
<path fill="lightgrey" stroke="black" d="M346.38,-560C346.38,-560 275.62,-560 275.62,-560 269.62,-560 263.62,-554 263.62,-548 263.62,-548 263.62,-528 263.62,-528 263.62,-522 269.62,-516 275.62,-516 275.62,-516 346.38,-516 346.38,-516 352.38,-516 358.38,-522 358.38,-528 358.38,-528 358.38,-548 358.38,-548 358.38,-554 352.38,-560 346.38,-560"/>
<text xml:space="preserve" text-anchor="middle" x="311" y="-546.5" font-family="Arial" font-size="10.00">Fallback Parser</text>
<text xml:space="preserve" text-anchor="middle" x="311" y="-534.5" font-family="Arial" font-size="10.00">&#45; Regex Patterns</text>
<text xml:space="preserve" text-anchor="middle" x="311" y="-522.5" font-family="Arial" font-size="10.00">&#45; Entity Extraction</text>
</g>
<!-- config_service.py -->
<g id="node12" class="node">
<title>config_service.py</title>
<path fill="lightgrey" stroke="black" d="M965.12,-331.5C965.12,-331.5 880.88,-331.5 880.88,-331.5 874.88,-331.5 868.88,-325.5 868.88,-319.5 868.88,-319.5 868.88,-299.5 868.88,-299.5 868.88,-293.5 874.88,-287.5 880.88,-287.5 880.88,-287.5 965.12,-287.5 965.12,-287.5 971.12,-287.5 977.12,-293.5 977.12,-299.5 977.12,-299.5 977.12,-319.5 977.12,-319.5 977.12,-325.5 971.12,-331.5 965.12,-331.5"/>
<text xml:space="preserve" text-anchor="middle" x="923" y="-318" font-family="Arial" font-size="10.00">Config Service</text>
<text xml:space="preserve" text-anchor="middle" x="923" y="-306" font-family="Arial" font-size="10.00">&#45; Environment Config</text>
<text xml:space="preserve" text-anchor="middle" x="923" y="-294" font-family="Arial" font-size="10.00">&#45; Sub&#45;configs</text>
</g>
<!-- PostgreSQL -->
<g id="node33" class="node">
<title>PostgreSQL</title>
<path fill="lightgrey" stroke="black" d="M392.62,-72.73C392.62,-74.53 377.11,-76 358,-76 338.89,-76 323.38,-74.53 323.38,-72.73 323.38,-72.73 323.38,-43.27 323.38,-43.27 323.38,-41.47 338.89,-40 358,-40 377.11,-40 392.62,-41.47 392.62,-43.27 392.62,-43.27 392.62,-72.73 392.62,-72.73"/>
<path fill="none" stroke="black" d="M392.62,-72.73C392.62,-70.92 377.11,-69.45 358,-69.45 338.89,-69.45 323.38,-70.92 323.38,-72.73"/>
<text xml:space="preserve" text-anchor="middle" x="358" y="-54.5" font-family="Arial" font-size="10.00">PostgreSQL</text>
</g>
<!-- database_manager.py&#45;&gt;PostgreSQL -->
<g id="edge17" class="edge">
<title>database_manager.py&#45;&gt;PostgreSQL</title>
<path fill="none" stroke="black" d="M245.83,-287.15C261.84,-258.01 291.05,-204.05 314,-157 325.47,-133.49 337.58,-106.33 346.18,-86.57"/>
<polygon fill="black" stroke="black" points="349.33,-88.11 350.09,-77.54 342.91,-85.32 349.33,-88.11"/>
</g>
<!-- embedding_interface.py -->
<g id="node37" class="node">
<title>embedding_interface.py</title>
<path fill="lightgrey" stroke="black" d="M647,-228C647,-228 565,-228 565,-228 559,-228 553,-222 553,-216 553,-216 553,-196 553,-196 553,-190 559,-184 565,-184 565,-184 647,-184 647,-184 653,-184 659,-190 659,-196 659,-196 659,-216 659,-216 659,-222 653,-228 647,-228"/>
<text xml:space="preserve" text-anchor="middle" x="606" y="-214.5" font-family="Arial" font-size="10.00">Embedding Interface</text>
<text xml:space="preserve" text-anchor="middle" x="606" y="-202.5" font-family="Arial" font-size="10.00">&#45; LocalEmbedder</text>
<text xml:space="preserve" text-anchor="middle" x="606" y="-190.5" font-family="Arial" font-size="10.00">&#45; OpenAIEmbedder</text>
</g>
<!-- llm_manager.py&#45;&gt;embedding_interface.py -->
<g id="edge18" class="edge">
<title>llm_manager.py&#45;&gt;embedding_interface.py</title>
<path fill="none" stroke="black" d="M682.9,-287.47C668.82,-272.73 649.81,-252.84 634.21,-236.52"/>
<polygon fill="black" stroke="black" points="636.89,-234.26 627.45,-229.45 631.83,-239.1 636.89,-234.26"/>
</g>
<!-- logger_manager.py -->
<g id="node17" class="node">
<title>logger_manager.py</title>
<path fill="lightgrey" stroke="black" d="M838.5,-331.5C838.5,-331.5 771.5,-331.5 771.5,-331.5 765.5,-331.5 759.5,-325.5 759.5,-319.5 759.5,-319.5 759.5,-299.5 759.5,-299.5 759.5,-293.5 765.5,-287.5 771.5,-287.5 771.5,-287.5 838.5,-287.5 838.5,-287.5 844.5,-287.5 850.5,-293.5 850.5,-299.5 850.5,-299.5 850.5,-319.5 850.5,-319.5 850.5,-325.5 844.5,-331.5 838.5,-331.5"/>
<text xml:space="preserve" text-anchor="middle" x="805" y="-318" font-family="Arial" font-size="10.00">Logger Manager</text>
<text xml:space="preserve" text-anchor="middle" x="805" y="-306" font-family="Arial" font-size="10.00">&#45; Structured Logs</text>
<text xml:space="preserve" text-anchor="middle" x="805" y="-294" font-family="Arial" font-size="10.00">&#45; Correlation IDs</text>
</g>
<!-- service_interface.py -->
<g id="node19" class="node">
<title>service_interface.py</title>
<path fill="lightgrey" stroke="black" d="M1073.12,-331.5C1073.12,-331.5 1006.88,-331.5 1006.88,-331.5 1000.88,-331.5 994.88,-325.5 994.88,-319.5 994.88,-319.5 994.88,-299.5 994.88,-299.5 994.88,-293.5 1000.88,-287.5 1006.88,-287.5 1006.88,-287.5 1073.12,-287.5 1073.12,-287.5 1079.12,-287.5 1085.12,-293.5 1085.12,-299.5 1085.12,-299.5 1085.12,-319.5 1085.12,-319.5 1085.12,-325.5 1079.12,-331.5 1073.12,-331.5"/>
<text xml:space="preserve" text-anchor="middle" x="1040" y="-318" font-family="Arial" font-size="10.00">Service Interface</text>
<text xml:space="preserve" text-anchor="middle" x="1040" y="-306" font-family="Arial" font-size="10.00">&#45; Lifecycle</text>
<text xml:space="preserve" text-anchor="middle" x="1040" y="-294" font-family="Arial" font-size="10.00">&#45; Health Checks</text>
</g>
<!-- celery_app.py -->
<g id="node20" class="node">
<title>celery_app.py</title>
<path fill="lightgrey" stroke="black" d="M956,-437C956,-437 916,-437 916,-437 910,-437 904,-431 904,-425 904,-425 904,-413 904,-413 904,-407 910,-401 916,-401 916,-401 956,-401 956,-401 962,-401 968,-407 968,-413 968,-413 968,-425 968,-425 968,-431 962,-437 956,-437"/>
<text xml:space="preserve" text-anchor="middle" x="936" y="-415.5" font-family="Arial" font-size="10.00">Celery App</text>
</g>
<!-- Redis -->
<g id="node34" class="node">
<title>Redis</title>
<path fill="lightgrey" stroke="black" d="M465,-72.73C465,-74.53 452.9,-76 438,-76 423.1,-76 411,-74.53 411,-72.73 411,-72.73 411,-43.27 411,-43.27 411,-41.47 423.1,-40 438,-40 452.9,-40 465,-41.47 465,-43.27 465,-43.27 465,-72.73 465,-72.73"/>
<path fill="none" stroke="black" d="M465,-72.73C465,-70.92 452.9,-69.45 438,-69.45 423.1,-69.45 411,-70.92 411,-72.73"/>
<text xml:space="preserve" text-anchor="middle" x="438" y="-54.5" font-family="Arial" font-size="10.00">Redis</text>
</g>
<!-- celery_app.py&#45;&gt;Redis -->
<g id="edge22" class="edge">
<title>celery_app.py&#45;&gt;Redis</title>
<path fill="none" stroke="black" d="M951.15,-400.76C958.51,-393.48 967.94,-385.64 978,-381 1002.26,-369.81 1079.5,-384.18 1097,-364 1121.61,-335.63 1116.35,-311.68 1097,-279.5 1046.43,-195.42 996.66,-201.81 902,-176 856.07,-163.48 512.42,-185.1 474,-157 452.17,-141.03 443.56,-110.4 440.17,-87.61"/>
<polygon fill="black" stroke="black" points="443.65,-87.23 438.99,-77.71 436.7,-88.06 443.65,-87.23"/>
</g>
<!-- service_registry.py -->
<g id="node21" class="node">
<title>service_registry.py</title>
<path fill="lightgrey" stroke="black" d="M1148,-437C1148,-437 1078,-437 1078,-437 1072,-437 1066,-431 1066,-425 1066,-425 1066,-413 1066,-413 1066,-407 1072,-401 1078,-401 1078,-401 1148,-401 1148,-401 1154,-401 1160,-407 1160,-413 1160,-413 1160,-425 1160,-425 1160,-431 1154,-437 1148,-437"/>
<text xml:space="preserve" text-anchor="middle" x="1113" y="-421.5" font-family="Arial" font-size="10.00">Service Registry</text>
<text xml:space="preserve" text-anchor="middle" x="1113" y="-409.5" font-family="Arial" font-size="10.00">&#45; Shared Services</text>
</g>
<!-- service_registry.py&#45;&gt;config_service.py -->
<g id="edge19" class="edge">
<title>service_registry.py&#45;&gt;config_service.py</title>
<path fill="none" stroke="black" d="M1117.81,-400.53C1119.33,-390.88 1119.08,-379.38 1112,-372 1102.29,-361.88 999.01,-369.25 986,-364 972.59,-358.59 959.98,-349.14 949.61,-339.68"/>
<polygon fill="black" stroke="black" points="952.17,-337.3 942.55,-332.87 947.31,-342.33 952.17,-337.3"/>
</g>
<!-- service_registry.py&#45;&gt;database_manager.py -->
<g id="edge20" class="edge">
<title>service_registry.py&#45;&gt;database_manager.py</title>
<path fill="none" stroke="black" d="M1092.65,-400.53C1082.61,-393.01 1069.9,-385.04 1057,-381 1016.91,-368.46 340.49,-378.33 301,-364 286.65,-358.79 273.04,-349.17 261.88,-339.5"/>
<polygon fill="black" stroke="black" points="264.35,-337.02 254.61,-332.85 259.63,-342.18 264.35,-337.02"/>
</g>
<!-- service_registry.py&#45;&gt;llm_manager.py -->
<g id="edge21" class="edge">
<title>service_registry.py&#45;&gt;llm_manager.py</title>
<path fill="none" stroke="black" d="M1108.1,-400.92C1104.17,-390.63 1097.54,-378.32 1087,-372 1054.97,-352.8 784.92,-379.62 751,-364 740.03,-358.95 730.5,-350.07 722.88,-340.99"/>
<polygon fill="black" stroke="black" points="725.73,-338.94 716.85,-333.16 720.18,-343.22 725.73,-338.94"/>
</g>
<!-- monitoring.py&#45;&gt;Redis -->
<g id="edge33" class="edge">
<title>monitoring.py&#45;&gt;Redis</title>
<path fill="none" stroke="black" d="M1035.71,-396.85C1041.94,-390.92 1049.28,-385.02 1057,-381 1082.35,-367.81 1102.57,-387.38 1119,-364 1174.93,-284.43 1096.93,-213.05 1007,-176 979.6,-164.71 497.99,-174.39 474,-157 452.11,-141.13 443.5,-110.48 440.14,-87.66"/>
<polygon fill="black" stroke="black" points="443.62,-87.27 438.96,-77.75 436.66,-88.09 443.62,-87.27"/>
</g>
<!-- config.py -->
<g id="node23" class="node">
<title>config.py</title>
<path fill="lightgrey" stroke="black" d="M1242,-441C1242,-441 1190,-441 1190,-441 1184,-441 1178,-435 1178,-429 1178,-429 1178,-409 1178,-409 1178,-403 1184,-397 1190,-397 1190,-397 1242,-397 1242,-397 1248,-397 1254,-403 1254,-409 1254,-409 1254,-429 1254,-429 1254,-435 1248,-441 1242,-441"/>
<text xml:space="preserve" text-anchor="middle" x="1216" y="-427.5" font-family="Arial" font-size="10.00">Celery Config</text>
<text xml:space="preserve" text-anchor="middle" x="1216" y="-415.5" font-family="Arial" font-size="10.00">&#45; Queues</text>
<text xml:space="preserve" text-anchor="middle" x="1216" y="-403.5" font-family="Arial" font-size="10.00">&#45; Routing</text>
</g>
<!-- base_task.py -->
<g id="node24" class="node">
<title>base_task.py</title>
<path fill="lightgrey" stroke="black" d="M1347.62,-441C1347.62,-441 1284.38,-441 1284.38,-441 1278.38,-441 1272.38,-435 1272.38,-429 1272.38,-429 1272.38,-409 1272.38,-409 1272.38,-403 1278.38,-397 1284.38,-397 1284.38,-397 1347.62,-397 1347.62,-397 1353.62,-397 1359.62,-403 1359.62,-409 1359.62,-409 1359.62,-429 1359.62,-429 1359.62,-435 1353.62,-441 1347.62,-441"/>
<text xml:space="preserve" text-anchor="middle" x="1316" y="-427.5" font-family="Arial" font-size="10.00">Base Task</text>
<text xml:space="preserve" text-anchor="middle" x="1316" y="-415.5" font-family="Arial" font-size="10.00">&#45; Retry</text>
<text xml:space="preserve" text-anchor="middle" x="1316" y="-403.5" font-family="Arial" font-size="10.00">&#45; Circuit Breaker</text>
</g>
<!-- case_tasks.py -->
<g id="node25" class="node">
<title>case_tasks.py</title>
<path fill="lightgrey" stroke="black" d="M831.88,-556C831.88,-556 788.12,-556 788.12,-556 782.12,-556 776.12,-550 776.12,-544 776.12,-544 776.12,-532 776.12,-532 776.12,-526 782.12,-520 788.12,-520 788.12,-520 831.88,-520 831.88,-520 837.88,-520 843.88,-526 843.88,-532 843.88,-532 843.88,-544 843.88,-544 843.88,-550 837.88,-556 831.88,-556"/>
<text xml:space="preserve" text-anchor="middle" x="810" y="-534.5" font-family="Arial" font-size="10.00">Case Tasks</text>
</g>
<!-- case_tasks.py&#45;&gt;service_registry.py -->
<g id="edge23" class="edge">
<title>case_tasks.py&#45;&gt;service_registry.py</title>
<path fill="none" stroke="black" d="M834.16,-519.59C840.09,-515.95 846.59,-512.48 853,-510 855.68,-508.96 1054.43,-474.8 1057,-473.5 1070.21,-466.79 1082.42,-455.95 1092.04,-445.78"/>
<polygon fill="black" stroke="black" points="1094.39,-448.4 1098.47,-438.62 1089.19,-443.72 1094.39,-448.4"/>
</g>
<!-- Case Management Queue -->
<g id="node43" class="node">
<title>Case Management Queue</title>
<path fill="lightgrey" stroke="none" d="M596,-437C596,-437 566,-437 566,-437 560,-437 554,-431 554,-425 554,-425 554,-413 554,-413 554,-407 560,-401 566,-401 566,-401 596,-401 596,-401 602,-401 608,-407 608,-413 608,-413 608,-425 608,-425 608,-431 602,-437 596,-437"/>
</g>
<!-- case_tasks.py&#45;&gt;Case Management Queue -->
<g id="edge37" class="edge">
<title>case_tasks.py&#45;&gt;Case Management Queue</title>
<path fill="none" stroke="blue" stroke-dasharray="5,2" d="M775.94,-533.43C724.88,-527.43 631.81,-513.81 607,-492 594.27,-480.81 587.78,-462.91 584.46,-447.75"/>
<polygon fill="blue" stroke="blue" points="587.98,-447.57 582.76,-438.35 581.09,-448.81 587.98,-447.57"/>
<text xml:space="preserve" text-anchor="middle" x="619" y="-483.45" font-family="Arial" font-size="9.00">async</text>
</g>
<!-- document_tasks.py -->
<g id="node26" class="node">
<title>document_tasks.py</title>
<path fill="lightgrey" stroke="black" d="M939.75,-556C939.75,-556 874.25,-556 874.25,-556 868.25,-556 862.25,-550 862.25,-544 862.25,-544 862.25,-532 862.25,-532 862.25,-526 868.25,-520 874.25,-520 874.25,-520 939.75,-520 939.75,-520 945.75,-520 951.75,-526 951.75,-532 951.75,-532 951.75,-544 951.75,-544 951.75,-550 945.75,-556 939.75,-556"/>
<text xml:space="preserve" text-anchor="middle" x="907" y="-534.5" font-family="Arial" font-size="10.00">Document Tasks</text>
</g>
<!-- document_tasks.py&#45;&gt;service_registry.py -->
<g id="edge24" class="edge">
<title>document_tasks.py&#45;&gt;service_registry.py</title>
<path fill="none" stroke="black" d="M939.81,-519.57C946.43,-516.26 953.39,-512.92 960,-510 1002.14,-491.41 1018,-498.02 1057,-473.5 1069.15,-465.86 1080.9,-455.29 1090.48,-445.56"/>
<polygon fill="black" stroke="black" points="1092.91,-448.09 1097.25,-438.43 1087.83,-443.27 1092.91,-448.09"/>
</g>
<!-- Document Generation Queue -->
<g id="node40" class="node">
<title>Document Generation Queue</title>
<path fill="lightgrey" stroke="none" d="M668,-437C668,-437 638,-437 638,-437 632,-437 626,-431 626,-425 626,-425 626,-413 626,-413 626,-407 632,-401 638,-401 638,-401 668,-401 668,-401 674,-401 680,-407 680,-413 680,-413 680,-425 680,-425 680,-431 674,-437 668,-437"/>
</g>
<!-- document_tasks.py&#45;&gt;Document Generation Queue -->
<g id="edge34" class="edge">
<title>document_tasks.py&#45;&gt;Document Generation Queue</title>
<path fill="none" stroke="blue" stroke-dasharray="5,2" d="M876.95,-519.55C869.35,-515.82 861.06,-512.32 853,-510 812.88,-498.47 696.71,-520.27 666,-492 654.2,-481.14 650.88,-463.48 650.54,-448.37"/>
<polygon fill="blue" stroke="blue" points="654.04,-448.57 650.77,-438.49 647.04,-448.4 654.04,-448.57"/>
<text xml:space="preserve" text-anchor="middle" x="678" y="-483.45" font-family="Arial" font-size="9.00">async</text>
</g>
<!-- search_tasks.py -->
<g id="node27" class="node">
<title>search_tasks.py</title>
<path fill="lightgrey" stroke="black" d="M1032.62,-556C1032.62,-556 981.38,-556 981.38,-556 975.38,-556 969.38,-550 969.38,-544 969.38,-544 969.38,-532 969.38,-532 969.38,-526 975.38,-520 981.38,-520 981.38,-520 1032.62,-520 1032.62,-520 1038.62,-520 1044.62,-526 1044.62,-532 1044.62,-532 1044.62,-544 1044.62,-544 1044.62,-550 1038.62,-556 1032.62,-556"/>
<text xml:space="preserve" text-anchor="middle" x="1007" y="-534.5" font-family="Arial" font-size="10.00">Search Tasks</text>
</g>
<!-- search_tasks.py&#45;&gt;service_registry.py -->
<g id="edge25" class="edge">
<title>search_tasks.py&#45;&gt;service_registry.py</title>
<path fill="none" stroke="black" d="M1022.64,-519.74C1040.33,-500.21 1069.33,-468.21 1089.69,-445.73"/>
<polygon fill="black" stroke="black" points="1092.16,-448.22 1096.28,-438.46 1086.97,-443.52 1092.16,-448.22"/>
</g>
<!-- Search Queue -->
<g id="node41" class="node">
<title>Search Queue</title>
<path fill="lightgrey" stroke="none" d="M740,-437C740,-437 710,-437 710,-437 704,-437 698,-431 698,-425 698,-425 698,-413 698,-413 698,-407 704,-401 710,-401 710,-401 740,-401 740,-401 746,-401 752,-407 752,-413 752,-413 752,-425 752,-425 752,-431 746,-437 740,-437"/>
</g>
<!-- search_tasks.py&#45;&gt;Search Queue -->
<g id="edge35" class="edge">
<title>search_tasks.py&#45;&gt;Search Queue</title>
<path fill="none" stroke="blue" stroke-dasharray="5,2" d="M979.18,-519.68C973.28,-516.28 967.01,-512.89 961,-510 892.93,-477.32 809.66,-447.89 762.43,-432.11"/>
<polygon fill="blue" stroke="blue" points="763.82,-428.89 753.23,-429.07 761.62,-435.53 763.82,-428.89"/>
<text xml:space="preserve" text-anchor="middle" x="928.98" y="-483.45" font-family="Arial" font-size="9.00">async</text>
</g>
<!-- embedding_tasks.py -->
<g id="node28" class="node">
<title>embedding_tasks.py</title>
<path fill="lightgrey" stroke="black" d="M1446.62,-556C1446.62,-556 1377.38,-556 1377.38,-556 1371.38,-556 1365.38,-550 1365.38,-544 1365.38,-544 1365.38,-532 1365.38,-532 1365.38,-526 1371.38,-520 1377.38,-520 1377.38,-520 1446.62,-520 1446.62,-520 1452.62,-520 1458.62,-526 1458.62,-532 1458.62,-532 1458.62,-544 1458.62,-544 1458.62,-550 1452.62,-556 1446.62,-556"/>
<text xml:space="preserve" text-anchor="middle" x="1412" y="-534.5" font-family="Arial" font-size="10.00">Embedding Tasks</text>
</g>
<!-- embedding_tasks.py&#45;&gt;service_registry.py -->
<g id="edge26" class="edge">
<title>embedding_tasks.py&#45;&gt;service_registry.py</title>
<path fill="none" stroke="black" d="M1379.42,-519.56C1371.88,-516.02 1363.78,-512.59 1356,-510 1345.96,-506.66 1178.4,-478.37 1169,-473.5 1155.85,-466.69 1143.64,-455.84 1134.01,-445.68"/>
<polygon fill="black" stroke="black" points="1136.87,-443.62 1127.57,-438.54 1131.67,-448.31 1136.87,-443.62"/>
</g>
<!-- Embeddings Queue -->
<g id="node42" class="node">
<title>Embeddings Queue</title>
<path fill="lightgrey" stroke="none" d="M1525,-437C1525,-437 1495,-437 1495,-437 1489,-437 1483,-431 1483,-425 1483,-425 1483,-413 1483,-413 1483,-407 1489,-401 1495,-401 1495,-401 1525,-401 1525,-401 1531,-401 1537,-407 1537,-413 1537,-413 1537,-425 1537,-425 1537,-431 1531,-437 1525,-437"/>
</g>
<!-- embedding_tasks.py&#45;&gt;Embeddings Queue -->
<g id="edge36" class="edge">
<title>embedding_tasks.py&#45;&gt;Embeddings Queue</title>
<path fill="none" stroke="blue" stroke-dasharray="5,2" d="M1426.46,-519.74C1442.84,-500.18 1469.69,-468.12 1488.52,-445.64"/>
<polygon fill="blue" stroke="blue" points="1491.09,-448.03 1494.83,-438.11 1485.72,-443.53 1491.09,-448.03"/>
<text xml:space="preserve" text-anchor="middle" x="1470.06" y="-483.45" font-family="Arial" font-size="9.00">async</text>
</g>
<!-- statute_tasks.py -->
<g id="node29" class="node">
<title>statute_tasks.py</title>
<path fill="lightgrey" stroke="black" d="M1245,-556C1245,-556 1193,-556 1193,-556 1187,-556 1181,-550 1181,-544 1181,-544 1181,-532 1181,-532 1181,-526 1187,-520 1193,-520 1193,-520 1245,-520 1245,-520 1251,-520 1257,-526 1257,-532 1257,-532 1257,-544 1257,-544 1257,-550 1251,-556 1245,-556"/>
<text xml:space="preserve" text-anchor="middle" x="1219" y="-534.5" font-family="Arial" font-size="10.00">Statute Tasks</text>
</g>
<!-- statute_tasks.py&#45;&gt;service_registry.py -->
<g id="edge27" class="edge">
<title>statute_tasks.py&#45;&gt;service_registry.py</title>
<path fill="none" stroke="black" d="M1203.36,-519.74C1185.67,-500.21 1156.67,-468.21 1136.31,-445.73"/>
<polygon fill="black" stroke="black" points="1139.03,-443.52 1129.72,-438.46 1133.84,-448.22 1139.03,-443.52"/>
</g>
<!-- ruling_tasks.py -->
<g id="node30" class="node">
<title>ruling_tasks.py</title>
<path fill="lightgrey" stroke="black" d="M1335.12,-556C1335.12,-556 1286.88,-556 1286.88,-556 1280.88,-556 1274.88,-550 1274.88,-544 1274.88,-544 1274.88,-532 1274.88,-532 1274.88,-526 1280.88,-520 1286.88,-520 1286.88,-520 1335.12,-520 1335.12,-520 1341.12,-520 1347.12,-526 1347.12,-532 1347.12,-532 1347.12,-544 1347.12,-544 1347.12,-550 1341.12,-556 1335.12,-556"/>
<text xml:space="preserve" text-anchor="middle" x="1311" y="-534.5" font-family="Arial" font-size="10.00">Ruling Tasks</text>
</g>
<!-- ruling_tasks.py&#45;&gt;service_registry.py -->
<g id="edge28" class="edge">
<title>ruling_tasks.py&#45;&gt;service_registry.py</title>
<path fill="none" stroke="black" d="M1283.83,-519.63C1278.05,-516.24 1271.91,-512.85 1266,-510 1224.53,-489.96 1208,-498.02 1169,-473.5 1156.85,-465.86 1145.1,-455.29 1135.52,-445.56"/>
<polygon fill="black" stroke="black" points="1138.17,-443.27 1128.75,-438.43 1133.09,-448.09 1138.17,-443.27"/>
</g>
<!-- maintenance.py -->
<g id="node31" class="node">
<title>maintenance.py</title>
<path fill="lightgrey" stroke="black" d="M1151,-556C1151,-556 1075,-556 1075,-556 1069,-556 1063,-550 1063,-544 1063,-544 1063,-532 1063,-532 1063,-526 1069,-520 1075,-520 1075,-520 1151,-520 1151,-520 1157,-520 1163,-526 1163,-532 1163,-532 1163,-544 1163,-544 1163,-550 1157,-556 1151,-556"/>
<text xml:space="preserve" text-anchor="middle" x="1113" y="-534.5" font-family="Arial" font-size="10.00">Maintenance Tasks</text>
</g>
<!-- maintenance.py&#45;&gt;service_registry.py -->
<g id="edge29" class="edge">
<title>maintenance.py&#45;&gt;service_registry.py</title>
<path fill="none" stroke="black" d="M1113,-519.74C1113,-501.07 1113,-471.01 1113,-448.77"/>
<polygon fill="black" stroke="black" points="1116.5,-448.85 1113,-438.85 1109.5,-448.85 1116.5,-448.85"/>
</g>
<!-- models.py -->
<g id="node32" class="node">
<title>models.py</title>
<path fill="lightgrey" stroke="black" d="M214.5,-92C214.5,-92 171.5,-92 171.5,-92 165.5,-92 159.5,-86 159.5,-80 159.5,-80 159.5,-36 159.5,-36 159.5,-30 165.5,-24 171.5,-24 171.5,-24 214.5,-24 214.5,-24 220.5,-24 226.5,-30 226.5,-36 226.5,-36 226.5,-80 226.5,-80 226.5,-86 220.5,-92 214.5,-92"/>
<text xml:space="preserve" text-anchor="middle" x="193" y="-78.5" font-family="Arial" font-size="10.00">SQLModel</text>
<text xml:space="preserve" text-anchor="middle" x="193" y="-66.5" font-family="Arial" font-size="10.00">&#45; Case</text>
<text xml:space="preserve" text-anchor="middle" x="193" y="-54.5" font-family="Arial" font-size="10.00">&#45; Document</text>
<text xml:space="preserve" text-anchor="middle" x="193" y="-42.5" font-family="Arial" font-size="10.00">&#45; User</text>
<text xml:space="preserve" text-anchor="middle" x="193" y="-30.5" font-family="Arial" font-size="10.00">&#45; SNRuling</text>
</g>
<!-- File Storage -->
<g id="node36" class="node">
<title>File Storage</title>
<polygon fill="lightgrey" stroke="black" points="551.25,-76 548.25,-80 527.25,-80 524.25,-76 482.75,-76 482.75,-40 551.25,-40 551.25,-76"/>
<text xml:space="preserve" text-anchor="middle" x="517" y="-54.5" font-family="Arial" font-size="10.00">File Storage</text>
</g>
<!-- embedding_interface.py&#45;&gt;Qdrant -->
<g id="edge32" class="edge">
<title>embedding_interface.py&#45;&gt;Qdrant</title>
<path fill="none" stroke="black" d="M552.57,-202.56C478.44,-198.13 349.49,-186.34 314,-157 293.28,-139.87 284.48,-109.69 280.75,-87.33"/>
<polygon fill="black" stroke="black" points="284.25,-87.07 279.4,-77.65 277.32,-88.04 284.25,-87.07"/>
</g>
<!-- embedding_factory.py -->
<g id="node38" class="node">
<title>embedding_factory.py</title>
<path fill="lightgrey" stroke="black" d="M765.38,-224C765.38,-224 688.62,-224 688.62,-224 682.62,-224 676.62,-218 676.62,-212 676.62,-212 676.62,-200 676.62,-200 676.62,-194 682.62,-188 688.62,-188 688.62,-188 765.38,-188 765.38,-188 771.38,-188 777.38,-194 777.38,-200 777.38,-200 777.38,-212 777.38,-212 777.38,-218 771.38,-224 765.38,-224"/>
<text xml:space="preserve" text-anchor="middle" x="727" y="-202.5" font-family="Arial" font-size="10.00">Embedding Factory</text>
</g>
<!-- pipeline_schemas.py -->
<g id="node39" class="node">
<title>pipeline_schemas.py</title>
<path fill="lightgrey" stroke="black" d="M878.38,-224C878.38,-224 807.62,-224 807.62,-224 801.62,-224 795.62,-218 795.62,-212 795.62,-212 795.62,-200 795.62,-200 795.62,-194 801.62,-188 807.62,-188 807.62,-188 878.38,-188 878.38,-188 884.38,-188 890.38,-194 890.38,-200 890.38,-200 890.38,-212 890.38,-212 890.38,-218 884.38,-224 878.38,-224"/>
<text xml:space="preserve" text-anchor="middle" x="843" y="-208.5" font-family="Arial" font-size="10.00">Pipeline Schemas</text>
<text xml:space="preserve" text-anchor="middle" x="843" y="-196.5" font-family="Arial" font-size="10.00">&#45; Validation</text>
</g>
</g>
</svg>
