<?xml version="1.0" encoding="UTF-8" standalone="no"?>
<!DOCTYPE svg PUBLIC "-//W3C//DTD SVG 1.1//EN"
 "http://www.w3.org/Graphics/SVG/1.1/DTD/svg11.dtd">
<!-- Generated by graphviz version 13.1.2 (20250808.2320)
 -->
<!-- Title: AI_Paralegal_Architecture Pages: 1 -->
<svg width="834pt" height="503pt"
 viewBox="0.00 0.00 834.00 503.00" xmlns="http://www.w3.org/2000/svg" xmlns:xlink="http://www.w3.org/1999/xlink">
<g id="graph0" class="graph" transform="scale(1 1) rotate(0) translate(4 498.5)">
<title>AI_Paralegal_Architecture</title>
<polygon fill="white" stroke="none" points="-4,4 -4,-498.5 830.21,-498.5 830.21,4 -4,4"/>
<g id="clust1" class="cluster">
<title>cluster_api</title>
<polygon fill="#f0f8ff" stroke="black" points="328,-333.5 328,-486.5 690,-486.5 690,-333.5 328,-333.5"/>
<text xml:space="preserve" text-anchor="middle" x="509" y="-469.2" font-family="Times,serif" font-size="14.00">API Layer</text>
</g>
<g id="clust2" class="cluster">
<title>cluster_agents</title>
<polygon fill="#f5f5dc" stroke="black" points="162,-333.5 162,-410 320,-410 320,-333.5 162,-333.5"/>
<text xml:space="preserve" text-anchor="middle" x="241" y="-392.7" font-family="Times,serif" font-size="14.00">Agent Layer</text>
</g>
<g id="clust3" class="cluster">
<title>cluster_services</title>
<polygon fill="#e6ffe6" stroke="black" points="8,-177 8,-325.5 375,-325.5 375,-177 8,-177"/>
<text xml:space="preserve" text-anchor="middle" x="191.5" y="-308.2" font-family="Times,serif" font-size="14.00">Service Layer</text>
</g>
<g id="clust4" class="cluster">
<title>cluster_core</title>
<polygon fill="#ffe6e6" stroke="black" points="148,-92.5 148,-169 782,-169 782,-92.5 148,-92.5"/>
<text xml:space="preserve" text-anchor="middle" x="465" y="-151.7" font-family="Times,serif" font-size="14.00">Core Infrastructure</text>
</g>
<g id="clust5" class="cluster">
<title>cluster_worker</title>
<polygon fill="#fff0e6" stroke="black" points="523,-177 523,-325.5 783,-325.5 783,-177 523,-177"/>
<text xml:space="preserve" text-anchor="middle" x="653" y="-308.2" font-family="Times,serif" font-size="14.00">Celery Worker Layer</text>
</g>
<g id="clust6" class="cluster">
<title>cluster_data</title>
<polygon fill="#e6e6fa" stroke="black" points="290,-8 290,-84.5 544,-84.5 544,-8 290,-8"/>
<text xml:space="preserve" text-anchor="middle" x="417" y="-67.2" font-family="Times,serif" font-size="14.00">Data Layer</text>
</g>
<!-- FastAPI Main -->
<g id="node1" class="node">
<title>FastAPI Main</title>
<path fill="#4a90e2" stroke="black" d="M475.88,-454C475.88,-454 402.12,-454 402.12,-454 396.12,-454 390.12,-448 390.12,-442 390.12,-442 390.12,-430 390.12,-430 390.12,-424 396.12,-418 402.12,-418 402.12,-418 475.88,-418 475.88,-418 481.88,-418 487.88,-424 487.88,-430 487.88,-430 487.88,-442 487.88,-442 487.88,-448 481.88,-454 475.88,-454"/>
<text xml:space="preserve" text-anchor="middle" x="439" y="-430.57" font-family="Arial" font-size="14.00">FastAPI Main</text>
</g>
<!-- Auth Routes -->
<g id="node2" class="node">
<title>Auth Routes</title>
<path fill="#87ceeb" stroke="black" d="M526.12,-377.5C526.12,-377.5 459.88,-377.5 459.88,-377.5 453.88,-377.5 447.88,-371.5 447.88,-365.5 447.88,-365.5 447.88,-353.5 447.88,-353.5 447.88,-347.5 453.88,-341.5 459.88,-341.5 459.88,-341.5 526.12,-341.5 526.12,-341.5 532.12,-341.5 538.12,-347.5 538.12,-353.5 538.12,-353.5 538.12,-365.5 538.12,-365.5 538.12,-371.5 532.12,-377.5 526.12,-377.5"/>
<text xml:space="preserve" text-anchor="middle" x="493" y="-354.07" font-family="Arial" font-size="14.00">Auth Routes</text>
</g>
<!-- FastAPI Main&#45;&gt;Auth Routes -->
<g id="edge1" class="edge">
<title>FastAPI Main&#45;&gt;Auth Routes</title>
<path fill="none" stroke="black" d="M451.52,-417.72C458.09,-408.67 466.27,-397.37 473.63,-387.22"/>
<polygon fill="black" stroke="black" points="476.43,-389.32 479.47,-379.17 470.77,-385.21 476.43,-389.32"/>
</g>
<!-- Case Routes -->
<g id="node3" class="node">
<title>Case Routes</title>
<path fill="#87ceeb" stroke="black" d="M418,-377.5C418,-377.5 348,-377.5 348,-377.5 342,-377.5 336,-371.5 336,-365.5 336,-365.5 336,-353.5 336,-353.5 336,-347.5 342,-341.5 348,-341.5 348,-341.5 418,-341.5 418,-341.5 424,-341.5 430,-347.5 430,-353.5 430,-353.5 430,-365.5 430,-365.5 430,-371.5 424,-377.5 418,-377.5"/>
<text xml:space="preserve" text-anchor="middle" x="383" y="-354.07" font-family="Arial" font-size="14.00">Case Routes</text>
</g>
<!-- FastAPI Main&#45;&gt;Case Routes -->
<g id="edge2" class="edge">
<title>FastAPI Main&#45;&gt;Case Routes</title>
<path fill="none" stroke="black" d="M426.01,-417.72C419.13,-408.57 410.54,-397.14 402.85,-386.91"/>
<polygon fill="black" stroke="black" points="405.83,-385.04 397.02,-379.15 400.23,-389.25 405.83,-385.04"/>
</g>
<!-- Monitoring Routes -->
<g id="node4" class="node">
<title>Monitoring Routes</title>
<path fill="#87ceeb" stroke="black" d="M670.12,-377.5C670.12,-377.5 567.88,-377.5 567.88,-377.5 561.88,-377.5 555.88,-371.5 555.88,-365.5 555.88,-365.5 555.88,-353.5 555.88,-353.5 555.88,-347.5 561.88,-341.5 567.88,-341.5 567.88,-341.5 670.12,-341.5 670.12,-341.5 676.12,-341.5 682.12,-347.5 682.12,-353.5 682.12,-353.5 682.12,-365.5 682.12,-365.5 682.12,-371.5 676.12,-377.5 670.12,-377.5"/>
<text xml:space="preserve" text-anchor="middle" x="619" y="-354.07" font-family="Arial" font-size="14.00">Monitoring Routes</text>
</g>
<!-- FastAPI Main&#45;&gt;Monitoring Routes -->
<g id="edge3" class="edge">
<title>FastAPI Main&#45;&gt;Monitoring Routes</title>
<path fill="none" stroke="black" d="M488.37,-427.61C507.22,-423.76 528.59,-418.11 547,-410 561.82,-403.47 576.81,-393.78 589.24,-384.69"/>
<polygon fill="black" stroke="black" points="591.12,-387.66 597,-378.84 586.91,-382.07 591.12,-387.66"/>
</g>
<!-- Paralegal Agent SDK -->
<g id="node5" class="node">
<title>Paralegal Agent SDK</title>
<path fill="#daa520" stroke="black" d="M300.38,-377.5C300.38,-377.5 181.62,-377.5 181.62,-377.5 175.62,-377.5 169.62,-371.5 169.62,-365.5 169.62,-365.5 169.62,-353.5 169.62,-353.5 169.62,-347.5 175.62,-341.5 181.62,-341.5 181.62,-341.5 300.38,-341.5 300.38,-341.5 306.38,-341.5 312.38,-347.5 312.38,-353.5 312.38,-353.5 312.38,-365.5 312.38,-365.5 312.38,-371.5 306.38,-377.5 300.38,-377.5"/>
<text xml:space="preserve" text-anchor="middle" x="241" y="-354.07" font-family="Arial" font-size="14.00">Paralegal Agent SDK</text>
</g>
<!-- FastAPI Main&#45;&gt;Paralegal Agent SDK -->
<g id="edge4" class="edge">
<title>FastAPI Main&#45;&gt;Paralegal Agent SDK</title>
<path fill="none" stroke="black" d="M389.85,-427.93C369.08,-424.03 344.91,-418.25 324,-410 307.01,-403.29 289.46,-393.34 274.9,-384.11"/>
<polygon fill="black" stroke="black" points="276.89,-381.24 266.6,-378.71 273.08,-387.1 276.89,-381.24"/>
</g>
<!-- Database Manager -->
<g id="node12" class="node">
<title>Database Manager</title>
<path fill="#ffb6c1" stroke="black" d="M393.75,-136.5C393.75,-136.5 286.25,-136.5 286.25,-136.5 280.25,-136.5 274.25,-130.5 274.25,-124.5 274.25,-124.5 274.25,-112.5 274.25,-112.5 274.25,-106.5 280.25,-100.5 286.25,-100.5 286.25,-100.5 393.75,-100.5 393.75,-100.5 399.75,-100.5 405.75,-106.5 405.75,-112.5 405.75,-112.5 405.75,-124.5 405.75,-124.5 405.75,-130.5 399.75,-136.5 393.75,-136.5"/>
<text xml:space="preserve" text-anchor="middle" x="340" y="-113.08" font-family="Arial" font-size="14.00">Database Manager</text>
</g>
<!-- Auth Routes&#45;&gt;Database Manager -->
<g id="edge5" class="edge">
<title>Auth Routes&#45;&gt;Database Manager</title>
<path fill="none" stroke="black" d="M485.02,-341.21C469.35,-308.01 432.52,-233.58 392,-177 384.14,-166.03 374.46,-154.82 365.59,-145.26"/>
<polygon fill="black" stroke="black" points="368.2,-142.93 358.78,-138.08 363.13,-147.75 368.2,-142.93"/>
</g>
<!-- Case Management -->
<g id="node6" class="node">
<title>Case Management</title>
<path fill="#90ee90" stroke="black" d="M354.75,-293C354.75,-293 247.25,-293 247.25,-293 241.25,-293 235.25,-287 235.25,-281 235.25,-281 235.25,-269 235.25,-269 235.25,-263 241.25,-257 247.25,-257 247.25,-257 354.75,-257 354.75,-257 360.75,-257 366.75,-263 366.75,-269 366.75,-269 366.75,-281 366.75,-281 366.75,-287 360.75,-293 354.75,-293"/>
<text xml:space="preserve" text-anchor="middle" x="301" y="-269.57" font-family="Arial" font-size="14.00">Case Management</text>
</g>
<!-- Case Routes&#45;&gt;Case Management -->
<g id="edge6" class="edge">
<title>Case Routes&#45;&gt;Case Management</title>
<path fill="none" stroke="black" d="M365.61,-341C354.19,-329.52 339.08,-314.31 326.33,-301.49"/>
<polygon fill="black" stroke="black" points="328.96,-299.17 319.43,-294.54 324,-304.1 328.96,-299.17"/>
</g>
<!-- Celery App -->
<g id="node16" class="node">
<title>Celery App</title>
<path fill="#ffa500" stroke="black" d="M725,-293C725,-293 667,-293 667,-293 661,-293 655,-287 655,-281 655,-281 655,-269 655,-269 655,-263 661,-257 667,-257 667,-257 725,-257 725,-257 731,-257 737,-263 737,-269 737,-269 737,-281 737,-281 737,-287 731,-293 725,-293"/>
<text xml:space="preserve" text-anchor="middle" x="696" y="-269.57" font-family="Arial" font-size="14.00">Celery App</text>
</g>
<!-- Monitoring Routes&#45;&gt;Celery App -->
<g id="edge7" class="edge">
<title>Monitoring Routes&#45;&gt;Celery App</title>
<path fill="none" stroke="black" d="M635.33,-341C645.95,-329.63 659.98,-314.6 671.87,-301.85"/>
<polygon fill="black" stroke="black" points="674.4,-304.28 678.66,-294.58 669.28,-299.5 674.4,-304.28"/>
</g>
<!-- Paralegal Agent SDK&#45;&gt;Case Management -->
<g id="edge9" class="edge">
<title>Paralegal Agent SDK&#45;&gt;Case Management</title>
<path fill="none" stroke="black" d="M253.72,-341C261.84,-329.85 272.51,-315.17 281.66,-302.59"/>
<polygon fill="black" stroke="black" points="284.35,-304.84 287.4,-294.69 278.69,-300.72 284.35,-304.84"/>
</g>
<!-- Document Generation -->
<g id="node7" class="node">
<title>Document Generation</title>
<path fill="#90ee90" stroke="black" d="M204.75,-293C204.75,-293 79.25,-293 79.25,-293 73.25,-293 67.25,-287 67.25,-281 67.25,-281 67.25,-269 67.25,-269 67.25,-263 73.25,-257 79.25,-257 79.25,-257 204.75,-257 204.75,-257 210.75,-257 216.75,-263 216.75,-269 216.75,-269 216.75,-281 216.75,-281 216.75,-287 210.75,-293 204.75,-293"/>
<text xml:space="preserve" text-anchor="middle" x="142" y="-269.57" font-family="Arial" font-size="14.00">Document Generation</text>
</g>
<!-- Paralegal Agent SDK&#45;&gt;Document Generation -->
<g id="edge10" class="edge">
<title>Paralegal Agent SDK&#45;&gt;Document Generation</title>
<path fill="none" stroke="black" d="M220,-341C205.96,-329.3 187.27,-313.73 171.71,-300.76"/>
<polygon fill="black" stroke="black" points="174.05,-298.15 164.13,-294.44 169.57,-303.53 174.05,-298.15"/>
</g>
<!-- Tool Registry -->
<g id="node14" class="node">
<title>Tool Registry</title>
<path fill="#ffb6c1" stroke="black" d="M506,-136.5C506,-136.5 436,-136.5 436,-136.5 430,-136.5 424,-130.5 424,-124.5 424,-124.5 424,-112.5 424,-112.5 424,-106.5 430,-100.5 436,-100.5 436,-100.5 506,-100.5 506,-100.5 512,-100.5 518,-106.5 518,-112.5 518,-112.5 518,-124.5 518,-124.5 518,-130.5 512,-136.5 506,-136.5"/>
<text xml:space="preserve" text-anchor="middle" x="471" y="-113.08" font-family="Arial" font-size="14.00">Tool Registry</text>
</g>
<!-- Paralegal Agent SDK&#45;&gt;Tool Registry -->
<g id="edge8" class="edge">
<title>Paralegal Agent SDK&#45;&gt;Tool Registry</title>
<path fill="none" stroke="black" d="M294.72,-341.06C304.4,-338.28 314.45,-335.62 324,-333.5 348.11,-328.15 359.3,-340.4 379,-325.5 436.92,-281.68 459.2,-193.26 467.09,-147.84"/>
<polygon fill="black" stroke="black" points="470.5,-148.68 468.63,-138.25 463.58,-147.57 470.5,-148.68"/>
</g>
<!-- Case Management&#45;&gt;Database Manager -->
<g id="edge11" class="edge">
<title>Case Management&#45;&gt;Database Manager</title>
<path fill="none" stroke="black" d="M339.28,-256.67C353.5,-248.11 368.08,-236.29 376,-221 388.54,-196.78 375.1,-167.2 361.21,-146.23"/>
<polygon fill="black" stroke="black" points="364.18,-144.37 355.55,-138.21 358.46,-148.4 364.18,-144.37"/>
</g>
<!-- Statute Search -->
<g id="node8" class="node">
<title>Statute Search</title>
<path fill="#90ee90" stroke="black" d="M109.62,-221C109.62,-221 28.38,-221 28.38,-221 22.37,-221 16.38,-215 16.38,-209 16.38,-209 16.38,-197 16.38,-197 16.38,-191 22.38,-185 28.38,-185 28.38,-185 109.62,-185 109.62,-185 115.62,-185 121.62,-191 121.62,-197 121.62,-197 121.62,-209 121.62,-209 121.62,-215 115.62,-221 109.62,-221"/>
<text xml:space="preserve" text-anchor="middle" x="69" y="-197.57" font-family="Arial" font-size="14.00">Statute Search</text>
</g>
<!-- Document Generation&#45;&gt;Statute Search -->
<g id="edge12" class="edge">
<title>Document Generation&#45;&gt;Statute Search</title>
<path fill="none" stroke="black" d="M123.96,-256.7C115.27,-248.37 104.69,-238.22 95.14,-229.07"/>
<polygon fill="black" stroke="black" points="97.82,-226.79 88.18,-222.39 92.98,-231.84 97.82,-226.79"/>
</g>
<!-- Supreme Court -->
<g id="node9" class="node">
<title>Supreme Court</title>
<path fill="#90ee90" stroke="black" d="M236.12,-221C236.12,-221 151.88,-221 151.88,-221 145.88,-221 139.88,-215 139.88,-209 139.88,-209 139.88,-197 139.88,-197 139.88,-191 145.88,-185 151.88,-185 151.88,-185 236.12,-185 236.12,-185 242.12,-185 248.12,-191 248.12,-197 248.12,-197 248.12,-209 248.12,-209 248.12,-215 242.12,-221 236.12,-221"/>
<text xml:space="preserve" text-anchor="middle" x="194" y="-197.57" font-family="Arial" font-size="14.00">Supreme Court</text>
</g>
<!-- Document Generation&#45;&gt;Supreme Court -->
<g id="edge13" class="edge">
<title>Document Generation&#45;&gt;Supreme Court</title>
<path fill="none" stroke="black" d="M154.85,-256.7C160.77,-248.73 167.93,-239.1 174.49,-230.26"/>
<polygon fill="black" stroke="black" points="177.24,-232.43 180.39,-222.32 171.62,-228.26 177.24,-232.43"/>
</g>
<!-- OpenAI Client -->
<g id="node10" class="node">
<title>OpenAI Client</title>
<path fill="#90ee90" stroke="black" d="M355.38,-221C355.38,-221 278.62,-221 278.62,-221 272.62,-221 266.62,-215 266.62,-209 266.62,-209 266.62,-197 266.62,-197 266.62,-191 272.62,-185 278.62,-185 278.62,-185 355.38,-185 355.38,-185 361.38,-185 367.38,-191 367.38,-197 367.38,-197 367.38,-209 367.38,-209 367.38,-215 361.38,-221 355.38,-221"/>
<text xml:space="preserve" text-anchor="middle" x="317" y="-197.57" font-family="Arial" font-size="14.00">OpenAI Client</text>
</g>
<!-- Document Generation&#45;&gt;OpenAI Client -->
<g id="edge14" class="edge">
<title>Document Generation&#45;&gt;OpenAI Client</title>
<path fill="none" stroke="black" d="M185.71,-256.52C209.18,-247.13 238.32,-235.47 263.18,-225.53"/>
<polygon fill="black" stroke="black" points="264.16,-228.91 272.14,-221.94 261.56,-222.41 264.16,-228.91"/>
</g>
<!-- LLM Manager -->
<g id="node13" class="node">
<title>LLM Manager</title>
<path fill="#ffb6c1" stroke="black" d="M244.38,-136.5C244.38,-136.5 167.62,-136.5 167.62,-136.5 161.62,-136.5 155.62,-130.5 155.62,-124.5 155.62,-124.5 155.62,-112.5 155.62,-112.5 155.62,-106.5 161.62,-100.5 167.62,-100.5 167.62,-100.5 244.38,-100.5 244.38,-100.5 250.38,-100.5 256.38,-106.5 256.38,-112.5 256.38,-112.5 256.38,-124.5 256.38,-124.5 256.38,-130.5 250.38,-136.5 244.38,-136.5"/>
<text xml:space="preserve" text-anchor="middle" x="206" y="-113.08" font-family="Arial" font-size="14.00">LLM Manager</text>
</g>
<!-- Statute Search&#45;&gt;LLM Manager -->
<g id="edge15" class="edge">
<title>Statute Search&#45;&gt;LLM Manager</title>
<path fill="none" stroke="black" d="M98.05,-184.5C118.22,-172.36 145.29,-156.06 167.28,-142.81"/>
<polygon fill="black" stroke="black" points="168.93,-145.91 175.69,-137.75 165.32,-139.91 168.93,-145.91"/>
</g>
<!-- Qdrant -->
<g id="node22" class="node">
<title>Qdrant</title>
<path fill="#9370db" stroke="black" d="M356,-48.73C356,-50.53 343,-52 327,-52 311,-52 298,-50.53 298,-48.73 298,-48.73 298,-19.27 298,-19.27 298,-17.47 311,-16 327,-16 343,-16 356,-17.47 356,-19.27 356,-19.27 356,-48.73 356,-48.73"/>
<path fill="none" stroke="black" d="M356,-48.73C356,-46.92 343,-45.45 327,-45.45 311,-45.45 298,-46.92 298,-48.73"/>
<text xml:space="preserve" text-anchor="middle" x="327" y="-28.57" font-family="Arial" font-size="14.00">Qdrant</text>
</g>
<!-- Statute Search&#45;&gt;Qdrant -->
<g id="edge16" class="edge">
<title>Statute Search&#45;&gt;Qdrant</title>
<path fill="none" stroke="black" d="M73.3,-184.83C80.26,-160.63 96.28,-116.76 126,-92.5 172.36,-54.65 242.38,-41.7 286.35,-37.28"/>
<polygon fill="black" stroke="black" points="286.6,-40.77 296.25,-36.4 285.98,-33.8 286.6,-40.77"/>
</g>
<!-- Supreme Court&#45;&gt;Database Manager -->
<g id="edge17" class="edge">
<title>Supreme Court&#45;&gt;Database Manager</title>
<path fill="none" stroke="black" d="M234.33,-184.52C244.49,-179.77 255.27,-174.43 265,-169 278.89,-161.24 293.62,-151.81 306.32,-143.27"/>
<polygon fill="black" stroke="black" points="308.04,-146.33 314.33,-137.8 304.09,-140.54 308.04,-146.33"/>
</g>
<!-- Supreme Court&#45;&gt;Qdrant -->
<g id="edge18" class="edge">
<title>Supreme Court&#45;&gt;Qdrant</title>
<path fill="none" stroke="black" d="M158.13,-184.82C152.45,-180.48 147.35,-175.23 144,-169 127.89,-139.06 123.88,-119.91 144,-92.5 176.49,-48.23 243.04,-37.14 286.3,-34.84"/>
<polygon fill="black" stroke="black" points="286.2,-38.35 296.06,-34.47 285.93,-31.36 286.2,-38.35"/>
</g>
<!-- Config Service -->
<g id="node11" class="node">
<title>Config Service</title>
<path fill="#ffb6c1" stroke="black" d="M627.88,-136.5C627.88,-136.5 548.12,-136.5 548.12,-136.5 542.12,-136.5 536.12,-130.5 536.12,-124.5 536.12,-124.5 536.12,-112.5 536.12,-112.5 536.12,-106.5 542.12,-100.5 548.12,-100.5 548.12,-100.5 627.88,-100.5 627.88,-100.5 633.88,-100.5 639.88,-106.5 639.88,-112.5 639.88,-112.5 639.88,-124.5 639.88,-124.5 639.88,-130.5 633.88,-136.5 627.88,-136.5"/>
<text xml:space="preserve" text-anchor="middle" x="588" y="-113.08" font-family="Arial" font-size="14.00">Config Service</text>
</g>
<!-- Redis -->
<g id="node21" class="node">
<title>Redis</title>
<path fill="#9370db" stroke="black" d="M536,-48.73C536,-50.53 523.9,-52 509,-52 494.1,-52 482,-50.53 482,-48.73 482,-48.73 482,-19.27 482,-19.27 482,-17.47 494.1,-16 509,-16 523.9,-16 536,-17.47 536,-19.27 536,-19.27 536,-48.73 536,-48.73"/>
<path fill="none" stroke="black" d="M536,-48.73C536,-46.92 523.9,-45.45 509,-45.45 494.1,-45.45 482,-46.92 482,-48.73"/>
<text xml:space="preserve" text-anchor="middle" x="509" y="-28.57" font-family="Arial" font-size="14.00">Redis</text>
</g>
<!-- Config Service&#45;&gt;Redis -->
<g id="edge20" class="edge">
<title>Config Service&#45;&gt;Redis</title>
<path fill="none" stroke="black" d="M571.25,-100C560.17,-88.44 545.49,-73.1 533.16,-60.23"/>
<polygon fill="black" stroke="black" points="535.95,-58.08 526.51,-53.28 530.89,-62.92 535.95,-58.08"/>
</g>
<!-- PostgreSQL -->
<g id="node20" class="node">
<title>PostgreSQL</title>
<path fill="#9370db" stroke="black" d="M464.12,-48.73C464.12,-50.53 443.9,-52 419,-52 394.1,-52 373.88,-50.53 373.88,-48.73 373.88,-48.73 373.88,-19.27 373.88,-19.27 373.88,-17.47 394.1,-16 419,-16 443.9,-16 464.12,-17.47 464.12,-19.27 464.12,-19.27 464.12,-48.73 464.12,-48.73"/>
<path fill="none" stroke="black" d="M464.12,-48.73C464.12,-46.92 443.9,-45.45 419,-45.45 394.1,-45.45 373.88,-46.92 373.88,-48.73"/>
<text xml:space="preserve" text-anchor="middle" x="419" y="-28.57" font-family="Arial" font-size="14.00">PostgreSQL</text>
</g>
<!-- Database Manager&#45;&gt;PostgreSQL -->
<g id="edge19" class="edge">
<title>Database Manager&#45;&gt;PostgreSQL</title>
<path fill="none" stroke="black" d="M356.75,-100C367.75,-88.52 382.32,-73.31 394.59,-60.49"/>
<polygon fill="black" stroke="black" points="396.84,-63.21 401.22,-53.56 391.78,-58.37 396.84,-63.21"/>
</g>
<!-- LLM Manager&#45;&gt;OpenAI Client -->
<g id="edge21" class="edge">
<title>LLM Manager&#45;&gt;OpenAI Client</title>
<path fill="none" stroke="black" d="M225.41,-136.9C236.67,-146.71 251.3,-158.97 265,-169 269.3,-172.15 273.9,-175.32 278.52,-178.39"/>
<polygon fill="black" stroke="black" points="276.38,-181.17 286.67,-183.69 280.19,-175.3 276.38,-181.17"/>
</g>
<!-- Logger Manager -->
<g id="node15" class="node">
<title>Logger Manager</title>
<path fill="#ffb6c1" stroke="black" d="M761.88,-136.5C761.88,-136.5 670.12,-136.5 670.12,-136.5 664.12,-136.5 658.12,-130.5 658.12,-124.5 658.12,-124.5 658.12,-112.5 658.12,-112.5 658.12,-106.5 664.12,-100.5 670.12,-100.5 670.12,-100.5 761.88,-100.5 761.88,-100.5 767.88,-100.5 773.88,-106.5 773.88,-112.5 773.88,-112.5 773.88,-124.5 773.88,-124.5 773.88,-130.5 767.88,-136.5 761.88,-136.5"/>
<text xml:space="preserve" text-anchor="middle" x="716" y="-113.08" font-family="Arial" font-size="14.00">Logger Manager</text>
</g>
<!-- Service Registry -->
<g id="node17" class="node">
<title>Service Registry</title>
<path fill="#ffa500" stroke="black" d="M633.12,-221C633.12,-221 542.88,-221 542.88,-221 536.88,-221 530.88,-215 530.88,-209 530.88,-209 530.88,-197 530.88,-197 530.88,-191 536.88,-185 542.88,-185 542.88,-185 633.12,-185 633.12,-185 639.12,-185 645.12,-191 645.12,-197 645.12,-197 645.12,-209 645.12,-209 645.12,-215 639.12,-221 633.12,-221"/>
<text xml:space="preserve" text-anchor="middle" x="588" y="-197.57" font-family="Arial" font-size="14.00">Service Registry</text>
</g>
<!-- Celery App&#45;&gt;Service Registry -->
<g id="edge22" class="edge">
<title>Celery App&#45;&gt;Service Registry</title>
<path fill="none" stroke="black" d="M669.03,-256.52C655.39,-247.68 638.66,-236.84 623.95,-227.3"/>
<polygon fill="black" stroke="black" points="626.2,-224.59 615.9,-222.08 622.39,-230.46 626.2,-224.59"/>
</g>
<!-- Celery App&#45;&gt;Redis -->
<g id="edge23" class="edge">
<title>Celery App&#45;&gt;Redis</title>
<path fill="none" stroke="black" d="M736.11,-256.54C752.63,-247.79 770.91,-235.85 784,-221 822.37,-177.48 843.94,-137.24 807,-92.5 774.51,-53.14 620.56,-40.42 547.57,-36.57"/>
<polygon fill="black" stroke="black" points="547.84,-33.07 537.68,-36.08 547.49,-40.07 547.84,-33.07"/>
</g>
<!-- Service Registry&#45;&gt;Config Service -->
<g id="edge24" class="edge">
<title>Service Registry&#45;&gt;Config Service</title>
<path fill="none" stroke="black" d="M588,-184.5C588,-174 588,-160.39 588,-148.33"/>
<polygon fill="black" stroke="black" points="591.5,-148.48 588,-138.48 584.5,-148.48 591.5,-148.48"/>
</g>
<!-- Service Registry&#45;&gt;Database Manager -->
<g id="edge25" class="edge">
<title>Service Registry&#45;&gt;Database Manager</title>
<path fill="none" stroke="black" d="M530.42,-192.17C484.35,-184.12 425.73,-173.36 415,-169 399.3,-162.62 383.42,-152.74 370.34,-143.48"/>
<polygon fill="black" stroke="black" points="372.71,-140.88 362.57,-137.8 368.58,-146.53 372.71,-140.88"/>
</g>
<!-- Service Registry&#45;&gt;LLM Manager -->
<g id="edge26" class="edge">
<title>Service Registry&#45;&gt;LLM Manager</title>
<path fill="none" stroke="black" d="M530.42,-194.34C488.49,-188.95 430.3,-181.86 379,-177 353.72,-174.6 288.55,-178.52 265,-169 251.77,-163.65 239.31,-154.16 229.29,-144.91"/>
<polygon fill="black" stroke="black" points="231.83,-142.49 222.23,-138.01 226.93,-147.5 231.83,-142.49"/>
</g>
<!-- Task Monitoring -->
<g id="node18" class="node">
<title>Task Monitoring</title>
<path fill="#ffa500" stroke="black" d="M762.62,-221C762.62,-221 675.38,-221 675.38,-221 669.38,-221 663.38,-215 663.38,-209 663.38,-209 663.38,-197 663.38,-197 663.38,-191 669.38,-185 675.38,-185 675.38,-185 762.62,-185 762.62,-185 768.62,-185 774.62,-191 774.62,-197 774.62,-197 774.62,-209 774.62,-209 774.62,-215 768.62,-221 762.62,-221"/>
<text xml:space="preserve" text-anchor="middle" x="719" y="-197.57" font-family="Arial" font-size="14.00">Task Monitoring</text>
</g>
<!-- Task Monitoring&#45;&gt;Redis -->
<g id="edge29" class="edge">
<title>Task Monitoring&#45;&gt;Redis</title>
<path fill="none" stroke="black" d="M770.44,-184.56C776.61,-180.39 782.1,-175.28 786,-169 803.96,-140.13 807.46,-118.87 786,-92.5 756.33,-56.04 616.15,-41.95 547.32,-37.17"/>
<polygon fill="black" stroke="black" points="547.84,-33.7 537.63,-36.53 547.38,-40.68 547.84,-33.7"/>
</g>
<!-- Worker Tasks -->
<g id="node19" class="node">
<title>Worker Tasks</title>
<path fill="#ffcc99" stroke="black" d="M624.88,-293C624.88,-293 551.12,-293 551.12,-293 545.12,-293 539.12,-287 539.12,-281 539.12,-281 539.12,-269 539.12,-269 539.12,-263 545.12,-257 551.12,-257 551.12,-257 624.88,-257 624.88,-257 630.88,-257 636.88,-263 636.88,-269 636.88,-269 636.88,-281 636.88,-281 636.88,-287 630.88,-293 624.88,-293"/>
<text xml:space="preserve" text-anchor="middle" x="588" y="-269.57" font-family="Arial" font-size="14.00">Worker Tasks</text>
</g>
<!-- Worker Tasks&#45;&gt;Service Registry -->
<g id="edge27" class="edge">
<title>Worker Tasks&#45;&gt;Service Registry</title>
<path fill="none" stroke="black" d="M588,-256.7C588,-249.41 588,-240.73 588,-232.54"/>
<polygon fill="black" stroke="black" points="591.5,-232.62 588,-222.62 584.5,-232.62 591.5,-232.62"/>
</g>
<!-- Worker Tasks&#45;&gt;Task Monitoring -->
<g id="edge28" class="edge">
<title>Worker Tasks&#45;&gt;Task Monitoring</title>
<path fill="none" stroke="black" d="M620.72,-256.52C637.65,-247.47 658.52,-236.32 676.66,-226.62"/>
<polygon fill="black" stroke="black" points="678.19,-229.77 685.36,-221.97 674.89,-223.6 678.19,-229.77"/>
</g>
</g>
</svg>
