<?xml version="1.0" encoding="UTF-8" standalone="no"?>
<!DOCTYPE svg PUBLIC "-//W3C//DTD SVG 1.1//EN"
 "http://www.w3.org/Graphics/SVG/1.1/DTD/svg11.dtd">
<!-- Generated by graphviz version 13.1.2 (20250808.2320)
 -->
<!-- Title: AI_Paralegal_POC_Detailed_Architecture Pages: 1 -->
<svg width="1236pt" height="777pt"
 viewBox="0.00 0.00 1236.00 777.00" xmlns="http://www.w3.org/2000/svg" xmlns:xlink="http://www.w3.org/1999/xlink">
<g id="graph0" class="graph" transform="scale(1 1) rotate(0) translate(4 772.81)">
<title>AI_Paralegal_POC_Detailed_Architecture</title>
<polygon fill="white" stroke="none" points="-4,4 -4,-772.81 1232,-772.81 1232,4 -4,4"/>
<g id="clust1" class="cluster">
<title>cluster_core</title>
<path fill="#e8f4f8" stroke="black" stroke-dasharray="5,2" d="M140,-99.06C140,-99.06 968,-99.06 968,-99.06 974,-99.06 980,-105.06 980,-111.06 980,-111.06 980,-207.56 980,-207.56 980,-213.56 974,-219.56 968,-219.56 968,-219.56 140,-219.56 140,-219.56 134,-219.56 128,-213.56 128,-207.56 128,-207.56 128,-111.06 128,-111.06 128,-105.06 134,-99.06 140,-99.06"/>
<text xml:space="preserve" text-anchor="middle" x="554" y="-202.26" font-family="Times,serif" font-size="14.00">app.core &#45; Core Infrastructure</text>
</g>
<g id="clust2" class="cluster">
<title>cluster_services</title>
<path fill="#f0f4ff" stroke="black" stroke-dasharray="5,2" d="M20,-246.44C20,-246.44 726,-246.44 726,-246.44 732,-246.44 738,-252.44 738,-258.44 738,-258.44 738,-354.94 738,-354.94 738,-360.94 732,-366.94 726,-366.94 726,-366.94 20,-366.94 20,-366.94 14,-366.94 8,-360.94 8,-354.94 8,-354.94 8,-258.44 8,-258.44 8,-252.44 14,-246.44 20,-246.44"/>
<text xml:space="preserve" text-anchor="middle" x="373" y="-349.64" font-family="Times,serif" font-size="14.00">app.services &#45; Business Logic</text>
</g>
<g id="clust3" class="cluster">
<title>cluster_routes</title>
<path fill="#e6f2ff" stroke="black" stroke-dasharray="5,2" d="M54,-393.81C54,-393.81 359,-393.81 359,-393.81 365,-393.81 371,-399.81 371,-405.81 371,-405.81 371,-502.31 371,-502.31 371,-508.31 365,-514.31 359,-514.31 359,-514.31 54,-514.31 54,-514.31 48,-514.31 42,-508.31 42,-502.31 42,-502.31 42,-405.81 42,-405.81 42,-399.81 48,-393.81 54,-393.81"/>
<text xml:space="preserve" text-anchor="middle" x="206.5" y="-497.01" font-family="Times,serif" font-size="14.00">app.routes &#45; API Endpoints</text>
</g>
<g id="clust4" class="cluster">
<title>cluster_worker</title>
<path fill="#e6e6ff" stroke="black" stroke-dasharray="5,2" d="M988,-238.56C988,-238.56 1208,-238.56 1208,-238.56 1214,-238.56 1220,-244.56 1220,-250.56 1220,-250.56 1220,-362.81 1220,-362.81 1220,-368.81 1214,-374.81 1208,-374.81 1208,-374.81 988,-374.81 988,-374.81 982,-374.81 976,-368.81 976,-362.81 976,-362.81 976,-250.56 976,-250.56 976,-244.56 982,-238.56 988,-238.56"/>
<text xml:space="preserve" text-anchor="middle" x="1098" y="-357.51" font-family="Times,serif" font-size="14.00">app.worker &#45; Background Tasks</text>
</g>
<g id="clust5" class="cluster">
<title>cluster_agents</title>
<path fill="#f0e6ff" stroke="black" stroke-dasharray="5,2" d="M425,-393.81C425,-393.81 725,-393.81 725,-393.81 731,-393.81 737,-399.81 737,-405.81 737,-405.81 737,-502.31 737,-502.31 737,-508.31 731,-514.31 725,-514.31 725,-514.31 425,-514.31 425,-514.31 419,-514.31 413,-508.31 413,-502.31 413,-502.31 413,-405.81 413,-405.81 413,-399.81 419,-393.81 425,-393.81"/>
<text xml:space="preserve" text-anchor="middle" x="575" y="-497.01" font-family="Times,serif" font-size="14.00">app.paralegal_agents</text>
</g>
<!-- core_config -->
<g id="node1" class="node">
<title>core_config</title>
<path fill="#b3d9ff" stroke="black" d="M294.25,-115.44C294.25,-115.44 377.75,-115.44 377.75,-115.44 383.75,-115.44 389.75,-121.44 389.75,-127.44 389.75,-127.44 389.75,-166.69 389.75,-166.69 389.75,-172.69 383.75,-178.69 377.75,-178.69 377.75,-178.69 294.25,-178.69 294.25,-178.69 288.25,-178.69 282.25,-172.69 282.25,-166.69 282.25,-166.69 282.25,-127.44 282.25,-127.44 282.25,-121.44 288.25,-115.44 294.25,-115.44"/>
<text xml:space="preserve" text-anchor="middle" x="336" y="-161.39" font-family="Arial" font-size="14.00">ConfigService</text>
<polyline fill="none" stroke="black" points="282.25,-154.94 389.75,-154.94"/>
<text xml:space="preserve" text-anchor="start" x="290.25" y="-137.64" font-family="Arial" font-size="14.00">+get_config()</text>
<text xml:space="preserve" text-anchor="start" x="290.25" y="-121.89" font-family="Arial" font-size="14.00">+get_env_var()</text>
</g>
<!-- core_db -->
<g id="node2" class="node">
<title>core_db</title>
<path fill="#b3d9ff" stroke="black" d="M148.12,-107.56C148.12,-107.56 251.88,-107.56 251.88,-107.56 257.88,-107.56 263.88,-113.56 263.88,-119.56 263.88,-119.56 263.88,-174.56 263.88,-174.56 263.88,-180.56 257.88,-186.56 251.88,-186.56 251.88,-186.56 148.12,-186.56 148.12,-186.56 142.12,-186.56 136.12,-180.56 136.12,-174.56 136.12,-174.56 136.12,-119.56 136.12,-119.56 136.12,-113.56 142.12,-107.56 148.12,-107.56"/>
<text xml:space="preserve" text-anchor="middle" x="200" y="-169.26" font-family="Arial" font-size="14.00">DatabaseManager</text>
<polyline fill="none" stroke="black" points="136.12,-162.81 263.88,-162.81"/>
<text xml:space="preserve" text-anchor="start" x="144.12" y="-145.51" font-family="Arial" font-size="14.00">+create_pool()</text>
<text xml:space="preserve" text-anchor="start" x="144.12" y="-129.76" font-family="Arial" font-size="14.00">+get_connection()</text>
<text xml:space="preserve" text-anchor="start" x="144.12" y="-114.01" font-family="Arial" font-size="14.00">+execute_query()</text>
</g>
<!-- postgres -->
<g id="node21" class="node">
<title>postgres</title>
<path fill="#ffffe6" stroke="black" d="M245.12,-49.38C245.12,-52.1 224.9,-54.31 200,-54.31 175.1,-54.31 154.88,-52.1 154.88,-49.38 154.88,-49.38 154.88,-4.94 154.88,-4.94 154.88,-2.21 175.1,0 200,0 224.9,0 245.12,-2.21 245.12,-4.94 245.12,-4.94 245.12,-49.38 245.12,-49.38"/>
<path fill="none" stroke="black" d="M245.12,-49.38C245.12,-46.65 224.9,-44.44 200,-44.44 175.1,-44.44 154.88,-46.65 154.88,-49.38"/>
<text xml:space="preserve" text-anchor="middle" x="200" y="-29.61" font-family="Arial" font-size="14.00">PostgreSQL</text>
<text xml:space="preserve" text-anchor="middle" x="200" y="-13.86" font-family="Arial" font-size="14.00">Database</text>
</g>
<!-- core_db&#45;&gt;postgres -->
<g id="edge10" class="edge">
<title>core_db&#45;&gt;postgres</title>
<path fill="none" stroke="black" d="M200,-107.13C200,-93.98 200,-79.33 200,-66.25"/>
<polygon fill="black" stroke="black" points="203.5,-66.28 200,-56.28 196.5,-66.28 203.5,-66.28"/>
</g>
<!-- core_logger -->
<g id="node3" class="node">
<title>core_logger</title>
<path fill="#b3d9ff" stroke="black" d="M419.88,-115.44C419.88,-115.44 534.12,-115.44 534.12,-115.44 540.12,-115.44 546.12,-121.44 546.12,-127.44 546.12,-127.44 546.12,-166.69 546.12,-166.69 546.12,-172.69 540.12,-178.69 534.12,-178.69 534.12,-178.69 419.88,-178.69 419.88,-178.69 413.88,-178.69 407.88,-172.69 407.88,-166.69 407.88,-166.69 407.88,-127.44 407.88,-127.44 407.88,-121.44 413.88,-115.44 419.88,-115.44"/>
<text xml:space="preserve" text-anchor="middle" x="477" y="-161.39" font-family="Arial" font-size="14.00">LoggerManager</text>
<polyline fill="none" stroke="black" points="407.88,-154.94 546.12,-154.94"/>
<text xml:space="preserve" text-anchor="start" x="415.88" y="-137.64" font-family="Arial" font-size="14.00">+get_logger()</text>
<text xml:space="preserve" text-anchor="start" x="415.88" y="-121.89" font-family="Arial" font-size="14.00">+correlation_context</text>
</g>
<!-- core_llm -->
<g id="node4" class="node">
<title>core_llm</title>
<path fill="#b3d9ff" stroke="black" d="M576.25,-115.44C576.25,-115.44 701.75,-115.44 701.75,-115.44 707.75,-115.44 713.75,-121.44 713.75,-127.44 713.75,-127.44 713.75,-166.69 713.75,-166.69 713.75,-172.69 707.75,-178.69 701.75,-178.69 701.75,-178.69 576.25,-178.69 576.25,-178.69 570.25,-178.69 564.25,-172.69 564.25,-166.69 564.25,-166.69 564.25,-127.44 564.25,-127.44 564.25,-121.44 570.25,-115.44 576.25,-115.44"/>
<text xml:space="preserve" text-anchor="middle" x="639" y="-161.39" font-family="Arial" font-size="14.00">LLMManager</text>
<polyline fill="none" stroke="black" points="564.25,-154.94 713.75,-154.94"/>
<text xml:space="preserve" text-anchor="start" x="572.25" y="-137.64" font-family="Arial" font-size="14.00">+generate_response()</text>
<text xml:space="preserve" text-anchor="start" x="572.25" y="-121.89" font-family="Arial" font-size="14.00">+stream_response()</text>
</g>
<!-- openai -->
<g id="node23" class="node">
<title>openai</title>
<ellipse fill="#f0e6ff" stroke="black" cx="639" cy="-27.16" rx="58.05" ry="18"/>
<text xml:space="preserve" text-anchor="middle" x="639" y="-21.73" font-family="Arial" font-size="14.00">OpenAI API</text>
</g>
<!-- core_llm&#45;&gt;openai -->
<g id="edge12" class="edge">
<title>core_llm&#45;&gt;openai</title>
<path fill="none" stroke="black" d="M639,-115.08C639,-97.01 639,-74.37 639,-56.73"/>
<polygon fill="black" stroke="black" points="642.5,-56.94 639,-46.94 635.5,-56.94 642.5,-56.94"/>
</g>
<!-- core_tools -->
<g id="node5" class="node">
<title>core_tools</title>
<path fill="#b3d9ff" stroke="black" d="M744.25,-115.44C744.25,-115.44 827.75,-115.44 827.75,-115.44 833.75,-115.44 839.75,-121.44 839.75,-127.44 839.75,-127.44 839.75,-166.69 839.75,-166.69 839.75,-172.69 833.75,-178.69 827.75,-178.69 827.75,-178.69 744.25,-178.69 744.25,-178.69 738.25,-178.69 732.25,-172.69 732.25,-166.69 732.25,-166.69 732.25,-127.44 732.25,-127.44 732.25,-121.44 738.25,-115.44 744.25,-115.44"/>
<text xml:space="preserve" text-anchor="middle" x="786" y="-161.39" font-family="Arial" font-size="14.00">ToolRegistry</text>
<polyline fill="none" stroke="black" points="732.25,-154.94 839.75,-154.94"/>
<text xml:space="preserve" text-anchor="start" x="740.25" y="-137.64" font-family="Arial" font-size="14.00">+register_tool()</text>
<text xml:space="preserve" text-anchor="start" x="740.25" y="-121.89" font-family="Arial" font-size="14.00">+get_tool()</text>
</g>
<!-- core_service -->
<g id="node6" class="node">
<title>core_service</title>
<path fill="#b3d9ff" stroke="black" d="M870.25,-107.56C870.25,-107.56 959.75,-107.56 959.75,-107.56 965.75,-107.56 971.75,-113.56 971.75,-119.56 971.75,-119.56 971.75,-174.56 971.75,-174.56 971.75,-180.56 965.75,-186.56 959.75,-186.56 959.75,-186.56 870.25,-186.56 870.25,-186.56 864.25,-186.56 858.25,-180.56 858.25,-174.56 858.25,-174.56 858.25,-119.56 858.25,-119.56 858.25,-113.56 864.25,-107.56 870.25,-107.56"/>
<text xml:space="preserve" text-anchor="middle" x="915" y="-169.26" font-family="Arial" font-size="14.00">ServiceInterface</text>
<polyline fill="none" stroke="black" points="858.25,-162.81 971.75,-162.81"/>
<text xml:space="preserve" text-anchor="start" x="866.25" y="-145.51" font-family="Arial" font-size="14.00">+health_check()</text>
<text xml:space="preserve" text-anchor="start" x="866.25" y="-129.76" font-family="Arial" font-size="14.00">+start()</text>
<text xml:space="preserve" text-anchor="start" x="866.25" y="-114.01" font-family="Arial" font-size="14.00">+stop()</text>
</g>
<!-- svc_case -->
<g id="node7" class="node">
<title>svc_case</title>
<path fill="#99ccff" stroke="black" d="M27.62,-254.94C27.62,-254.94 176.38,-254.94 176.38,-254.94 182.38,-254.94 188.38,-260.94 188.38,-266.94 188.38,-266.94 188.38,-321.94 188.38,-321.94 188.38,-327.94 182.38,-333.94 176.38,-333.94 176.38,-333.94 27.63,-333.94 27.63,-333.94 21.62,-333.94 15.62,-327.94 15.62,-321.94 15.62,-321.94 15.62,-266.94 15.62,-266.94 15.62,-260.94 21.62,-254.94 27.62,-254.94"/>
<text xml:space="preserve" text-anchor="middle" x="102" y="-316.64" font-family="Arial" font-size="14.00">CaseManagementService</text>
<polyline fill="none" stroke="black" points="15.62,-310.19 188.38,-310.19"/>
<text xml:space="preserve" text-anchor="start" x="23.62" y="-292.89" font-family="Arial" font-size="14.00">+create_case()</text>
<text xml:space="preserve" text-anchor="start" x="23.62" y="-277.14" font-family="Arial" font-size="14.00">+update_case()</text>
<text xml:space="preserve" text-anchor="start" x="23.62" y="-261.39" font-family="Arial" font-size="14.00">+get_case_history()</text>
</g>
<!-- svc_case&#45;&gt;core_db -->
<g id="edge4" class="edge">
<title>svc_case&#45;&gt;core_db</title>
<path fill="none" stroke="black" d="M133.68,-246.44C144.51,-230.37 156.64,-212.38 167.54,-196.22"/>
<polygon fill="black" stroke="black" points="170.3,-198.38 172.99,-188.13 164.5,-194.47 170.3,-198.38"/>
</g>
<!-- app_models -->
<g id="node19" class="node">
<title>app_models</title>
<path fill="#cce6ff" stroke="black" d="M32.12,-91.81C32.12,-91.81 105.88,-91.81 105.88,-91.81 111.88,-91.81 117.88,-97.81 117.88,-103.81 117.88,-103.81 117.88,-190.31 117.88,-190.31 117.88,-196.31 111.88,-202.31 105.88,-202.31 105.88,-202.31 32.12,-202.31 32.12,-202.31 26.12,-202.31 20.12,-196.31 20.12,-190.31 20.12,-190.31 20.12,-103.81 20.12,-103.81 20.12,-97.81 26.12,-91.81 32.12,-91.81"/>
<text xml:space="preserve" text-anchor="middle" x="69" y="-185.01" font-family="Arial" font-size="14.00">app.models</text>
<polyline fill="none" stroke="black" points="20.12,-178.56 117.88,-178.56"/>
<text xml:space="preserve" text-anchor="start" x="28.12" y="-161.26" font-family="Arial" font-size="14.00">Case</text>
<text xml:space="preserve" text-anchor="start" x="28.12" y="-145.51" font-family="Arial" font-size="14.00">Document</text>
<text xml:space="preserve" text-anchor="start" x="28.12" y="-129.76" font-family="Arial" font-size="14.00">User</text>
<text xml:space="preserve" text-anchor="start" x="28.12" y="-114.01" font-family="Arial" font-size="14.00">StatuteChunk</text>
<text xml:space="preserve" text-anchor="start" x="28.12" y="-98.26" font-family="Arial" font-size="14.00">SNRuling</text>
</g>
<!-- svc_case&#45;&gt;app_models -->
<g id="edge5" class="edge">
<title>svc_case&#45;&gt;app_models</title>
<path fill="none" stroke="black" d="M93.16,-254.48C90.31,-241.94 87.07,-227.67 83.91,-213.75"/>
<polygon fill="black" stroke="black" points="87.37,-213.16 81.74,-204.18 80.54,-214.71 87.37,-213.16"/>
</g>
<!-- svc_doc -->
<g id="node8" class="node">
<title>svc_doc</title>
<path fill="#99ccff" stroke="black" d="M218.62,-262.81C218.62,-262.81 385.38,-262.81 385.38,-262.81 391.38,-262.81 397.38,-268.81 397.38,-274.81 397.38,-274.81 397.38,-314.06 397.38,-314.06 397.38,-320.06 391.38,-326.06 385.38,-326.06 385.38,-326.06 218.62,-326.06 218.62,-326.06 212.62,-326.06 206.62,-320.06 206.62,-314.06 206.62,-314.06 206.62,-274.81 206.62,-274.81 206.62,-268.81 212.62,-262.81 218.62,-262.81"/>
<text xml:space="preserve" text-anchor="middle" x="302" y="-308.76" font-family="Arial" font-size="14.00">DocumentGenerationService</text>
<polyline fill="none" stroke="black" points="206.62,-302.31 397.38,-302.31"/>
<text xml:space="preserve" text-anchor="start" x="214.62" y="-285.01" font-family="Arial" font-size="14.00">+generate_contract()</text>
<text xml:space="preserve" text-anchor="start" x="214.62" y="-269.26" font-family="Arial" font-size="14.00">+generate_motion()</text>
</g>
<!-- svc_statute -->
<g id="node9" class="node">
<title>svc_statute</title>
<path fill="#99ccff" stroke="black" d="M427.75,-262.81C427.75,-262.81 550.25,-262.81 550.25,-262.81 556.25,-262.81 562.25,-268.81 562.25,-274.81 562.25,-274.81 562.25,-314.06 562.25,-314.06 562.25,-320.06 556.25,-326.06 550.25,-326.06 550.25,-326.06 427.75,-326.06 427.75,-326.06 421.75,-326.06 415.75,-320.06 415.75,-314.06 415.75,-314.06 415.75,-274.81 415.75,-274.81 415.75,-268.81 421.75,-262.81 427.75,-262.81"/>
<text xml:space="preserve" text-anchor="middle" x="489" y="-308.76" font-family="Arial" font-size="14.00">StatuteSearchService</text>
<polyline fill="none" stroke="black" points="415.75,-302.31 562.25,-302.31"/>
<text xml:space="preserve" text-anchor="start" x="423.75" y="-285.01" font-family="Arial" font-size="14.00">+search_statutes()</text>
<text xml:space="preserve" text-anchor="start" x="423.75" y="-269.26" font-family="Arial" font-size="14.00">+get_statute_details()</text>
</g>
<!-- svc_court -->
<g id="node10" class="node">
<title>svc_court</title>
<path fill="#99ccff" stroke="black" d="M592.25,-262.81C592.25,-262.81 717.75,-262.81 717.75,-262.81 723.75,-262.81 729.75,-268.81 729.75,-274.81 729.75,-274.81 729.75,-314.06 729.75,-314.06 729.75,-320.06 723.75,-326.06 717.75,-326.06 717.75,-326.06 592.25,-326.06 592.25,-326.06 586.25,-326.06 580.25,-320.06 580.25,-314.06 580.25,-314.06 580.25,-274.81 580.25,-274.81 580.25,-268.81 586.25,-262.81 592.25,-262.81"/>
<text xml:space="preserve" text-anchor="middle" x="655" y="-308.76" font-family="Arial" font-size="14.00">SupremeCourtService</text>
<polyline fill="none" stroke="black" points="580.25,-302.31 729.75,-302.31"/>
<text xml:space="preserve" text-anchor="start" x="588.25" y="-285.01" font-family="Arial" font-size="14.00">+search_rulings()</text>
<text xml:space="preserve" text-anchor="start" x="588.25" y="-269.26" font-family="Arial" font-size="14.00">+analyze_precedent()</text>
</g>
<!-- route_auth -->
<g id="node11" class="node">
<title>route_auth</title>
<path fill="#80bfff" stroke="black" d="M61.62,-402.31C61.62,-402.31 102.38,-402.31 102.38,-402.31 108.38,-402.31 114.38,-408.31 114.38,-414.31 114.38,-414.31 114.38,-469.31 114.38,-469.31 114.38,-475.31 108.38,-481.31 102.38,-481.31 102.38,-481.31 61.62,-481.31 61.62,-481.31 55.62,-481.31 49.62,-475.31 49.62,-469.31 49.62,-469.31 49.62,-414.31 49.62,-414.31 49.62,-408.31 55.62,-402.31 61.62,-402.31"/>
<text xml:space="preserve" text-anchor="middle" x="82" y="-464.01" font-family="Arial" font-size="14.00">auth</text>
<polyline fill="none" stroke="black" points="49.62,-457.56 114.38,-457.56"/>
<text xml:space="preserve" text-anchor="start" x="57.62" y="-440.26" font-family="Arial" font-size="14.00">/login</text>
<text xml:space="preserve" text-anchor="start" x="57.62" y="-424.51" font-family="Arial" font-size="14.00">/register</text>
<text xml:space="preserve" text-anchor="start" x="57.62" y="-408.76" font-family="Arial" font-size="14.00">/refresh</text>
</g>
<!-- route_case -->
<g id="node12" class="node">
<title>route_case</title>
<path fill="#80bfff" stroke="black" d="M144.88,-402.31C144.88,-402.31 253.12,-402.31 253.12,-402.31 259.12,-402.31 265.12,-408.31 265.12,-414.31 265.12,-414.31 265.12,-469.31 265.12,-469.31 265.12,-475.31 259.12,-481.31 253.12,-481.31 253.12,-481.31 144.88,-481.31 144.88,-481.31 138.88,-481.31 132.88,-475.31 132.88,-469.31 132.88,-469.31 132.88,-414.31 132.88,-414.31 132.88,-408.31 138.88,-402.31 144.88,-402.31"/>
<text xml:space="preserve" text-anchor="middle" x="199" y="-464.01" font-family="Arial" font-size="14.00">case_management</text>
<polyline fill="none" stroke="black" points="132.88,-457.56 265.12,-457.56"/>
<text xml:space="preserve" text-anchor="start" x="140.88" y="-440.26" font-family="Arial" font-size="14.00">/cases</text>
<text xml:space="preserve" text-anchor="start" x="140.88" y="-424.51" font-family="Arial" font-size="14.00">/cases/:id</text>
<text xml:space="preserve" text-anchor="start" x="140.88" y="-408.76" font-family="Arial" font-size="14.00">/documents</text>
</g>
<!-- route_case&#45;&gt;svc_case -->
<g id="edge6" class="edge">
<title>route_case&#45;&gt;svc_case</title>
<path fill="none" stroke="black" d="M167.64,-393.82C156.92,-377.75 144.91,-359.75 134.13,-343.59"/>
<polygon fill="black" stroke="black" points="137.2,-341.89 128.74,-335.51 131.38,-345.77 137.2,-341.89"/>
</g>
<!-- route_monitor -->
<g id="node13" class="node">
<title>route_monitor</title>
<path fill="#80bfff" stroke="black" d="M295.12,-402.31C295.12,-402.31 350.88,-402.31 350.88,-402.31 356.88,-402.31 362.88,-408.31 362.88,-414.31 362.88,-414.31 362.88,-469.31 362.88,-469.31 362.88,-475.31 356.88,-481.31 350.88,-481.31 350.88,-481.31 295.12,-481.31 295.12,-481.31 289.12,-481.31 283.12,-475.31 283.12,-469.31 283.12,-469.31 283.12,-414.31 283.12,-414.31 283.12,-408.31 289.12,-402.31 295.12,-402.31"/>
<text xml:space="preserve" text-anchor="middle" x="323" y="-464.01" font-family="Arial" font-size="14.00">monitoring</text>
<polyline fill="none" stroke="black" points="283.12,-457.56 362.88,-457.56"/>
<text xml:space="preserve" text-anchor="start" x="291.12" y="-440.26" font-family="Arial" font-size="14.00">/health</text>
<text xml:space="preserve" text-anchor="start" x="291.12" y="-424.51" font-family="Arial" font-size="14.00">/metrics</text>
<text xml:space="preserve" text-anchor="start" x="291.12" y="-408.76" font-family="Arial" font-size="14.00">/status</text>
</g>
<!-- worker_celery -->
<g id="node14" class="node">
<title>worker_celery</title>
<path fill="#66b3ff" stroke="black" d="M1130,-262.81C1130,-262.81 1200,-262.81 1200,-262.81 1206,-262.81 1212,-268.81 1212,-274.81 1212,-274.81 1212,-314.06 1212,-314.06 1212,-320.06 1206,-326.06 1200,-326.06 1200,-326.06 1130,-326.06 1130,-326.06 1124,-326.06 1118,-320.06 1118,-314.06 1118,-314.06 1118,-274.81 1118,-274.81 1118,-268.81 1124,-262.81 1130,-262.81"/>
<text xml:space="preserve" text-anchor="middle" x="1165" y="-308.76" font-family="Arial" font-size="14.00">CeleryApp</text>
<polyline fill="none" stroke="black" points="1118,-302.31 1212,-302.31"/>
<text xml:space="preserve" text-anchor="start" x="1126" y="-285.01" font-family="Arial" font-size="14.00">+celery_app</text>
<text xml:space="preserve" text-anchor="start" x="1126" y="-269.26" font-family="Arial" font-size="14.00">+task_routes</text>
</g>
<!-- redis -->
<g id="node22" class="node">
<title>redis</title>
<path fill="#ffe6e6" stroke="black" d="M1215,-169.28C1215,-172.01 1192.59,-174.22 1165,-174.22 1137.41,-174.22 1115,-172.01 1115,-169.28 1115,-169.28 1115,-124.84 1115,-124.84 1115,-122.12 1137.41,-119.91 1165,-119.91 1192.59,-119.91 1215,-122.12 1215,-124.84 1215,-124.84 1215,-169.28 1215,-169.28"/>
<path fill="none" stroke="black" d="M1215,-169.28C1215,-166.56 1192.59,-164.34 1165,-164.34 1137.41,-164.34 1115,-166.56 1115,-169.28"/>
<text xml:space="preserve" text-anchor="middle" x="1165" y="-149.51" font-family="Arial" font-size="14.00">Redis</text>
<text xml:space="preserve" text-anchor="middle" x="1165" y="-133.76" font-family="Arial" font-size="14.00">Cache/Queue</text>
</g>
<!-- worker_celery&#45;&gt;redis -->
<g id="edge11" class="edge">
<title>worker_celery&#45;&gt;redis</title>
<path fill="none" stroke="black" d="M1165,-262.61C1165,-240.22 1165,-209.79 1165,-185.93"/>
<polygon fill="black" stroke="black" points="1168.5,-185.98 1165,-175.98 1161.5,-185.98 1168.5,-185.98"/>
</g>
<!-- worker_tasks -->
<g id="node15" class="node">
<title>worker_tasks</title>
<path fill="#66b3ff" stroke="black" d="M996.5,-247.06C996.5,-247.06 1087.5,-247.06 1087.5,-247.06 1093.5,-247.06 1099.5,-253.06 1099.5,-259.06 1099.5,-259.06 1099.5,-329.81 1099.5,-329.81 1099.5,-335.81 1093.5,-341.81 1087.5,-341.81 1087.5,-341.81 996.5,-341.81 996.5,-341.81 990.5,-341.81 984.5,-335.81 984.5,-329.81 984.5,-329.81 984.5,-259.06 984.5,-259.06 984.5,-253.06 990.5,-247.06 996.5,-247.06"/>
<text xml:space="preserve" text-anchor="middle" x="1042" y="-324.51" font-family="Arial" font-size="14.00">Tasks</text>
<polyline fill="none" stroke="black" points="984.5,-318.06 1099.5,-318.06"/>
<text xml:space="preserve" text-anchor="start" x="992.5" y="-300.76" font-family="Arial" font-size="14.00">case_tasks</text>
<text xml:space="preserve" text-anchor="start" x="992.5" y="-285.01" font-family="Arial" font-size="14.00">document_tasks</text>
<text xml:space="preserve" text-anchor="start" x="992.5" y="-269.26" font-family="Arial" font-size="14.00">statute_tasks</text>
<text xml:space="preserve" text-anchor="start" x="992.5" y="-253.51" font-family="Arial" font-size="14.00">ruling_tasks</text>
</g>
<!-- worker_tasks&#45;&gt;core_db -->
<g id="edge9" class="edge">
<title>worker_tasks&#45;&gt;core_db</title>
<path fill="none" stroke="black" d="M984,-280.33C923.84,-267.32 826.86,-247.99 742,-238.56 690.17,-232.8 320.88,-240.24 273,-219.56 259.89,-213.9 247.81,-204.73 237.41,-194.82"/>
<polygon fill="black" stroke="black" points="240.02,-192.49 230.5,-187.84 235.05,-197.41 240.02,-192.49"/>
</g>
<!-- ingest_module -->
<g id="node20" class="node">
<title>ingest_module</title>
<path fill="#ffcc99" stroke="black" d="M1002,-99.69C1002,-99.69 1084,-99.69 1084,-99.69 1090,-99.69 1096,-105.69 1096,-111.69 1096,-111.69 1096,-182.44 1096,-182.44 1096,-188.44 1090,-194.44 1084,-194.44 1084,-194.44 1002,-194.44 1002,-194.44 996,-194.44 990,-188.44 990,-182.44 990,-182.44 990,-111.69 990,-111.69 990,-105.69 996,-99.69 1002,-99.69"/>
<text xml:space="preserve" text-anchor="middle" x="1043" y="-177.14" font-family="Arial" font-size="14.00">ingest</text>
<polyline fill="none" stroke="black" points="990,-170.69 1096,-170.69"/>
<text xml:space="preserve" text-anchor="start" x="998" y="-153.39" font-family="Arial" font-size="14.00">pdf2chunks</text>
<text xml:space="preserve" text-anchor="start" x="998" y="-137.64" font-family="Arial" font-size="14.00">embed</text>
<text xml:space="preserve" text-anchor="start" x="998" y="-121.89" font-family="Arial" font-size="14.00">preprocess_sn</text>
<text xml:space="preserve" text-anchor="start" x="998" y="-106.14" font-family="Arial" font-size="14.00">ingest_pipeline</text>
</g>
<!-- worker_tasks&#45;&gt;ingest_module -->
<g id="edge8" class="edge">
<title>worker_tasks&#45;&gt;ingest_module</title>
<path fill="none" stroke="black" d="M1042.32,-246.64C1042.41,-233.67 1042.51,-219.44 1042.6,-205.92"/>
<polygon fill="black" stroke="black" points="1046.1,-206.31 1042.67,-196.29 1039.1,-206.26 1046.1,-206.31"/>
</g>
<!-- agent_sdk -->
<g id="node16" class="node">
<title>agent_sdk</title>
<path fill="#80bfff" stroke="black" d="M433,-410.19C433,-410.19 545,-410.19 545,-410.19 551,-410.19 557,-416.19 557,-422.19 557,-422.19 557,-461.44 557,-461.44 557,-467.44 551,-473.44 545,-473.44 545,-473.44 433,-473.44 433,-473.44 427,-473.44 421,-467.44 421,-461.44 421,-461.44 421,-422.19 421,-422.19 421,-416.19 427,-410.19 433,-410.19"/>
<text xml:space="preserve" text-anchor="middle" x="489" y="-456.14" font-family="Arial" font-size="14.00">ParalegalAgentSDK</text>
<polyline fill="none" stroke="black" points="421,-449.69 557,-449.69"/>
<text xml:space="preserve" text-anchor="start" x="429" y="-432.39" font-family="Arial" font-size="14.00">+process_query()</text>
<text xml:space="preserve" text-anchor="start" x="429" y="-416.64" font-family="Arial" font-size="14.00">+execute_tool()</text>
</g>
<!-- agent_sdk&#45;&gt;svc_statute -->
<g id="edge7" class="edge">
<title>agent_sdk&#45;&gt;svc_statute</title>
<path fill="none" stroke="black" d="M489,-393.82C489,-388.79 489,-383.57 489,-378.28"/>
<polygon fill="black" stroke="black" points="492.5,-378.45 489,-368.45 485.5,-378.45 492.5,-378.45"/>
</g>
<!-- agent_tools -->
<g id="node17" class="node">
<title>agent_tools</title>
<path fill="#80bfff" stroke="black" d="M587,-402.31C587,-402.31 717,-402.31 717,-402.31 723,-402.31 729,-408.31 729,-414.31 729,-414.31 729,-469.31 729,-469.31 729,-475.31 723,-481.31 717,-481.31 717,-481.31 587,-481.31 587,-481.31 581,-481.31 575,-475.31 575,-469.31 575,-469.31 575,-414.31 575,-414.31 575,-408.31 581,-402.31 587,-402.31"/>
<text xml:space="preserve" text-anchor="middle" x="652" y="-464.01" font-family="Arial" font-size="14.00">ToolWrappers</text>
<polyline fill="none" stroke="black" points="575,-457.56 729,-457.56"/>
<text xml:space="preserve" text-anchor="start" x="583" y="-440.26" font-family="Arial" font-size="14.00">+search_statute()</text>
<text xml:space="preserve" text-anchor="start" x="583" y="-424.51" font-family="Arial" font-size="14.00">+analyze_case()</text>
<text xml:space="preserve" text-anchor="start" x="583" y="-408.76" font-family="Arial" font-size="14.00">+generate_document()</text>
</g>
<!-- app_main -->
<g id="node18" class="node">
<title>app_main</title>
<path fill="#80bfff" stroke="black" d="M519.5,-541.81C519.5,-541.81 628.5,-541.81 628.5,-541.81 634.5,-541.81 640.5,-547.81 640.5,-553.81 640.5,-553.81 640.5,-624.56 640.5,-624.56 640.5,-630.56 634.5,-636.56 628.5,-636.56 628.5,-636.56 519.5,-636.56 519.5,-636.56 513.5,-636.56 507.5,-630.56 507.5,-624.56 507.5,-624.56 507.5,-553.81 507.5,-553.81 507.5,-547.81 513.5,-541.81 519.5,-541.81"/>
<text xml:space="preserve" text-anchor="middle" x="574" y="-619.26" font-family="Arial" font-size="14.00">app.main</text>
<polyline fill="none" stroke="black" points="507.5,-612.81 640.5,-612.81"/>
<text xml:space="preserve" text-anchor="start" x="515.5" y="-595.51" font-family="Arial" font-size="14.00">FastAPI Application</text>
<text xml:space="preserve" text-anchor="start" x="515.5" y="-579.76" font-family="Arial" font-size="14.00">+startup()</text>
<text xml:space="preserve" text-anchor="start" x="515.5" y="-564.01" font-family="Arial" font-size="14.00">+shutdown()</text>
<text xml:space="preserve" text-anchor="start" x="515.5" y="-548.26" font-family="Arial" font-size="14.00">+chat_endpoint()</text>
</g>
<!-- app_main&#45;&gt;core_config -->
<g id="edge1" class="edge">
<title>app_main&#45;&gt;core_config</title>
<path fill="none" stroke="black" d="M640.8,-576.7C676.99,-566.71 718.74,-548.24 741,-514.31 774.62,-463.08 784.11,-283.07 742,-238.56 717.61,-212.79 471.79,-232.92 409.75,-222.49"/>
<polygon fill="black" stroke="black" points="411.03,-219.21 400.46,-219.96 409.19,-225.96 411.03,-219.21"/>
</g>
<!-- app_main&#45;&gt;route_auth -->
<g id="edge2" class="edge">
<title>app_main&#45;&gt;route_auth</title>
<path fill="none" stroke="black" d="M507.29,-584.14C402.73,-576.72 204.82,-558.1 133.57,-520.07"/>
<polygon fill="black" stroke="black" points="135.67,-517.25 125.3,-515.09 132.06,-523.25 135.67,-517.25"/>
</g>
<!-- app_main&#45;&gt;agent_sdk -->
<g id="edge3" class="edge">
<title>app_main&#45;&gt;agent_sdk</title>
<path fill="none" stroke="black" d="M546.64,-541.39C543.39,-535.84 540.02,-530.06 536.59,-524.21"/>
<polygon fill="black" stroke="black" points="539.64,-522.48 531.57,-515.62 533.59,-526.02 539.64,-522.48"/>
</g>
<!-- ui_app -->
<g id="node24" class="node">
<title>ui_app</title>
<path fill="#80ff80" stroke="black" d="M526.62,-705.06C526.62,-705.06 621.38,-705.06 621.38,-705.06 627.38,-705.06 633.38,-711.06 633.38,-717.06 633.38,-717.06 633.38,-740.56 633.38,-740.56 633.38,-746.56 627.38,-752.56 621.38,-752.56 621.38,-752.56 526.62,-752.56 526.62,-752.56 520.62,-752.56 514.62,-746.56 514.62,-740.56 514.62,-740.56 514.62,-717.06 514.62,-717.06 514.62,-711.06 520.62,-705.06 526.62,-705.06"/>
<text xml:space="preserve" text-anchor="middle" x="574" y="-735.26" font-family="Arial" font-size="14.00">UI Frontend</text>
<polyline fill="none" stroke="black" points="514.62,-728.81 633.38,-728.81"/>
<text xml:space="preserve" text-anchor="start" x="522.62" y="-711.51" font-family="Arial" font-size="14.00">React/TypeScript</text>
</g>
<!-- ui_app&#45;&gt;app_main -->
<g id="edge13" class="edge">
<title>ui_app&#45;&gt;app_main</title>
<path fill="none" stroke="black" d="M574,-704.78C574,-689.36 574,-668.34 574,-648.5"/>
<polygon fill="black" stroke="black" points="577.5,-648.53 574,-638.53 570.5,-648.53 577.5,-648.53"/>
<text xml:space="preserve" text-anchor="middle" x="623.88" y="-657.51" font-family="Arial" font-size="14.00">HTTP/REST API</text>
</g>
<!-- tests -->
<g id="node25" class="node">
<title>tests</title>
<path fill="#d9d9d9" stroke="black" d="M673.62,-689.31C673.62,-689.31 732.38,-689.31 732.38,-689.31 738.38,-689.31 744.38,-695.31 744.38,-701.31 744.38,-701.31 744.38,-756.31 744.38,-756.31 744.38,-762.31 738.38,-768.31 732.38,-768.31 732.38,-768.31 673.62,-768.31 673.62,-768.31 667.62,-768.31 661.62,-762.31 661.62,-756.31 661.62,-756.31 661.62,-701.31 661.62,-701.31 661.62,-695.31 667.62,-689.31 673.62,-689.31"/>
<text xml:space="preserve" text-anchor="middle" x="703" y="-751.01" font-family="Arial" font-size="14.00">tests</text>
<polyline fill="none" stroke="black" points="661.62,-744.56 744.38,-744.56"/>
<text xml:space="preserve" text-anchor="start" x="669.62" y="-727.26" font-family="Arial" font-size="14.00">unit/</text>
<text xml:space="preserve" text-anchor="start" x="669.62" y="-711.51" font-family="Arial" font-size="14.00">integration/</text>
<text xml:space="preserve" text-anchor="start" x="669.62" y="-695.76" font-family="Arial" font-size="14.00">celery/</text>
</g>
<!-- tests&#45;&gt;core_service -->
<g id="edge15" class="edge">
<title>tests&#45;&gt;core_service</title>
<path fill="none" stroke="black" stroke-dasharray="1,5" d="M744.6,-696.77C773.18,-671.6 806,-633.31 806,-590.19 806,-590.19 806,-590.19 806,-293.44 806,-284.86 825.66,-257.35 848.29,-228.53"/>
<polygon fill="black" stroke="black" points="850.98,-230.76 854.44,-220.75 845.49,-226.42 850.98,-230.76"/>
</g>
<!-- tests&#45;&gt;app_main -->
<g id="edge14" class="edge">
<title>tests&#45;&gt;app_main</title>
<path fill="none" stroke="black" stroke-dasharray="1,5" d="M695.03,-689.09C691.26,-677.3 685.82,-664.89 678,-655.06 670.16,-645.21 660.39,-636.44 650,-628.79"/>
<polygon fill="black" stroke="black" points="652.19,-626.05 641.98,-623.22 648.2,-631.8 652.19,-626.05"/>
</g>
</g>
</svg>
